<?xml version="1.0" encoding="UTF-8"?> <svg xmlns="http://www.w3.org/2000/svg" width="1680" height="900" viewBox="0 0 1680 900" fill="none"> <g clip-path="url(#clip0_804_341)"> <rect width="1680" height="900" fill="white"></rect> <path opacity="0.8" d="M1621.23 211.323L1466.36 219.088C1465.81 207.432 1465.42 196.047 1464.76 184.67C1464.44 179.541 1465.57 177.839 1472.35 178.118C1494.58 179.108 1516.98 179.363 1539.1 179.114C1573.9 178.753 1608.63 180.333 1643.21 182.081C1671.08 183.565 1699.14 183.069 1726.95 183.427C1735.12 183.546 1743.32 183.402 1751.42 184.113C1759.52 184.823 1761.13 188.49 1756.72 194.243C1740.93 215 1724.91 235.605 1709.12 256.362C1682.27 291.692 1652.59 325.273 1629.63 363.063C1623.99 372.347 1618.28 381.583 1613.14 391.115C1610.37 396.292 1607.42 397.211 1601.63 394.391C1593.43 390.421 1584.67 387.201 1576.32 383.67C1572.55 382.081 1570.81 380.339 1573.56 376.304C1588.53 354.453 1602.65 332.274 1618.7 310.934C1631.7 293.628 1647.64 278.368 1658.89 259.792C1657.6 259.417 1656.24 259.341 1654.93 259.57C1653.61 259.799 1652.39 260.326 1651.38 261.103C1637.19 269.979 1621.4 276.508 1607.44 285.944C1588.77 298.648 1569.36 310.452 1549.28 321.307C1526.51 333.58 1507.2 349.871 1485.3 363.151C1467.74 373.697 1451.38 385.626 1435.17 397.691C1420.74 408.437 1406.99 419.942 1393.49 431.639C1372.36 449.88 1351.33 468.177 1331.03 487.144C1314.38 502.716 1298.92 519.335 1282.83 535.37C1277.32 540.875 1279.92 546.452 1282.46 552.148C1291.69 572.704 1302.44 592.893 1310 613.848C1317.77 636.213 1323.87 658.99 1328.24 682.02C1331.75 699.029 1336.37 715.95 1338.55 733.032C1341.73 757.79 1350.55 781.726 1350.84 806.98C1350.98 818.341 1353.94 830.436 1355.54 842.061C1357.15 853.685 1356.01 866.78 1356.63 879.059C1358.17 907.629 1358.17 936.223 1361.09 964.8C1361.53 974.02 1360.82 983.225 1358.98 992.244C1356.95 1005.71 1357.03 1019.32 1356.04 1032.85C1355.14 1043.15 1353.41 1053.36 1350.88 1063.39C1346.32 1082.02 1345.32 1101.39 1341.53 1120.23C1338.6 1134.77 1338.59 1150.25 1328.62 1163.14C1325.65 1167 1325.7 1172.6 1324.62 1177.35C1321.36 1192.02 1316.6 1206.34 1310.39 1220.14C1305.43 1231.06 1303.98 1243.28 1296 1253.08C1290.68 1259.72 1286.3 1266.94 1282.94 1274.59C1276.43 1288.8 1261.93 1296.63 1250.72 1307.09C1231.86 1324.16 1208.22 1336.29 1182.2 1342.25C1169.7 1345.44 1156.56 1343.59 1144.05 1342.53C1115.21 1340.09 1087.85 1331.97 1064.77 1314.57C1049.77 1302.63 1036.66 1288.86 1025.85 1273.68C1006.88 1249.18 991.788 1222.45 981.036 1194.3C973.32 1173.21 971.654 1151.42 969.066 1129.73C963.586 1082.61 964.256 1035.22 971.063 988.556C975.112 960.098 984.377 932.51 992.546 904.811C1000.97 876.361 1011.45 848.573 1022.32 821.009C1030.15 801.092 1040.72 781.957 1049.3 762.207C1064.36 727.628 1086 696.285 1106.13 664.263C1123.17 637.178 1140.32 609.95 1162.99 586.021C1168.38 579.852 1173.17 573.273 1177.32 566.35C1188.83 548.709 1205.26 534.839 1219.89 519.587C1221.21 518.604 1222.08 517.22 1222.35 515.681C1222.63 514.142 1222.28 512.55 1221.39 511.19C1210.83 493.134 1200.04 475.263 1188.24 457.871C1180.59 446.606 1174.34 434.511 1166.5 423.406C1155.12 407.356 1145.41 390.267 1133.98 374.105C1122.72 357.403 1110.18 341.418 1096.45 326.275C1075.54 303.28 1052.39 282.01 1027.32 262.732C1011.44 251.1 997.053 238.15 979.453 228.827C966.947 221.79 953.885 215.625 940.384 210.39C924.125 204.612 907.469 199.871 890.538 196.203C858.599 189.014 826.585 188.249 795.985 198.525C772.588 206.727 750.952 218.411 731.949 233.106C715.751 245.274 699.758 257.523 687.501 273.478C685.225 275.933 683.86 278.985 683.591 282.219C683.321 285.453 684.161 288.711 685.995 291.55C708.05 330.233 729.588 369.036 744.864 410.78C760.746 454.177 776.037 497.542 785.737 542.178C790.74 565.623 793.997 589.304 795.487 613.059C796.242 625.266 798.845 637.418 800.538 649.769C803.663 672.02 803.565 694.286 804.223 716.52C804.887 739.801 805.499 763.138 804.453 786.371C803.133 815.915 802.638 845.612 798.334 874.957C795.344 899.136 790.043 922.977 782.493 946.214C776.943 961.993 768.251 976.998 754.495 987.76C736.798 1001.61 709.922 1004.33 684.372 988.331C651.511 967.784 630.411 938.656 610.698 908.457C594.135 883.045 581.407 855.802 572.866 827.479C563.549 796.721 553.96 765.699 550.21 733.766C546.877 705.332 542.936 676.93 542.287 648.392C542.041 634.107 543.643 619.766 542.562 605.529C540.8 581.226 548.579 558.025 549.451 533.977C550.446 520.019 553.395 506.282 558.228 493.095C562.713 479.673 564.202 465.34 566.837 451.366C570.192 433.846 577.084 417.323 582.155 400.29C589.462 375.802 603.36 353.607 610.164 329.04C611.812 323.072 617.368 319.5 620.35 314.203C624.424 306.892 626.534 298.735 632.171 292.08C636.321 287.214 631.88 283.483 629.288 280C620.031 267.497 609.994 255.426 600.938 242.867C580.284 214.785 557.304 188.137 532.203 163.161C510.916 141.679 488.381 120.86 462.523 103.98C436.116 86.7402 408.839 70.1477 378.929 58.1892C364.498 53.0372 349.765 48.6627 334.808 45.0888C327.016 42.9641 318.838 41.4944 311.266 39.082C296.099 34.3531 280.902 35.2487 265.603 34.2668C213.79 30.8659 171.592 49.0516 131.768 76.2013C95.8092 100.714 71.2513 132.952 47.8703 166.501C29.0426 194.313 16.0609 225.145 9.5615 257.485C2.83703 288.612 -0.334917 320.37 7.14036 352.838C10.3101 369.306 14.7982 385.575 20.5685 401.516C22.354 405.998 24.3036 414.091 21.0492 414.842C14.9658 416.137 13.4425 408.443 11.3856 404.305C1.28205 382.951 -5.57186 360.52 -8.98362 337.643C-11.6089 319.439 -12.5063 301.108 -11.6659 282.852C-10.8114 242.211 4.17238 205.491 21.7265 168.979C29.0468 152.676 38.0809 137.085 48.7068 122.416C66.9337 98.5985 86.9241 75.6842 111.112 56.8841C133.478 39.0703 159.876 25.8458 188.577 18.0762C217.242 10.5009 245.767 3.80444 276.003 4.03463C289.782 4.14188 303.56 5.24721 317.205 7.34013C353.249 13.0587 387.968 23.2673 419.378 41.3296C455.79 61.9185 490.276 85.2482 522.458 111.063C543.539 127.724 563.669 145.356 582.762 163.886C608.55 189.618 634.735 215.103 654.271 245.261C658.37 251.613 661.082 252.156 666.658 246.667C676.471 237.175 685.835 227.38 694.374 217.129C699.031 211.45 704.785 206.592 711.368 202.779C725.822 194.366 737.59 181.942 754.25 177.06C772.289 171.746 788.994 163.468 807.303 159.193C840.747 151.627 876.214 153.464 909.058 164.461C921.56 168.455 934.07 172.417 946.638 176.291C982.327 186.819 1013.78 204.25 1042.98 225.524C1068.14 244.206 1092.13 264.153 1114.85 285.265C1126.81 295.685 1137.28 307.415 1146.03 320.169C1151 327.83 1158.13 334.357 1163.63 341.867C1175.12 357.47 1185.3 373.719 1196.96 389.226C1207.69 403.375 1215.96 418.69 1226.06 433.07C1235.54 446.532 1240.55 462.462 1247.58 477.298C1251.88 486.357 1254.02 486.94 1261.07 480.029C1277.71 463.778 1295.09 448.134 1312.06 432.227C1334.72 411.094 1359.91 392.182 1384.02 372.319C1406.86 353.487 1429.83 334.783 1452.5 315.775C1464.52 305.616 1477.79 296.74 1492.08 289.313C1509.22 280.46 1524.27 268.875 1540.99 259.454C1567.92 244.273 1594.83 229.031 1621.72 213.727L1621.23 211.323ZM1250.5 574.56C1234.78 586.6 1224.34 602.02 1212.38 616.154C1188.66 643.312 1166.7 671.716 1146.61 701.227C1134.76 719.028 1123.35 737.197 1111.77 755.125C1098.48 775.738 1087.71 797.254 1076.34 818.602C1057.12 854.739 1043.99 892.92 1031.99 931.493C1021.32 965.744 1014.74 1000.88 1008.06 1035.96C1006.84 1042.43 1006.63 1049.43 1005.81 1056.13C1003.39 1076.59 1005.21 1097.1 1006.56 1117.6C1007.55 1138.96 1010.81 1160.25 1016.3 1181.16C1022.72 1202.58 1033.16 1222.93 1047.14 1241.31C1057.74 1255.7 1068.49 1270.63 1083.45 1281.89C1107.6 1300.07 1135.09 1305.55 1166.04 1303.04C1199.93 1300.28 1224.15 1286.55 1242.16 1261.47C1270 1222.72 1284.14 1178.86 1297.78 1134.79C1305.42 1110.01 1308.07 1084.2 1312.64 1058.83C1313.88 1052.09 1317.17 1045.52 1317.12 1038.86C1316.77 1011.1 1320.88 983.737 1318.78 955.647C1316.02 919.351 1317.11 882.808 1313.98 846.361C1311.85 821.571 1309.25 796.844 1304.89 772.293C1297.93 732.993 1289.22 693.942 1278.18 655.242C1270.45 628.247 1262.71 601.147 1250.5 574.56ZM658.684 327.08C651.781 341.509 646.253 354.292 639.602 366.62C627.614 389.448 617.575 413.114 609.57 437.415C602.986 456.502 595.622 475.413 591.613 495.45C588.267 511.557 584.78 527.632 582.723 543.522C579.935 564.846 575.443 586.09 575.833 607.893C576.222 629.695 575.051 651.754 576.256 673.741C577.013 687.163 579.327 700.497 579.772 713.815C581.089 750.022 592.679 784.496 602.637 819.209C607.916 837.256 617.472 854.345 626.336 871.514C641.104 900.195 661.628 925.248 689.378 943.734C714.104 960.191 739.343 958.656 753.32 927.273C759.421 913.675 759.837 899.134 763.178 885.185C769.102 859.727 772.013 833.696 771.862 807.528C771.88 764.034 772.942 720.404 768.608 676.943C765.452 643.963 759.915 610.919 753.161 578.411C743.155 531.134 729.28 484.505 711.651 438.912C697.568 401.315 678.727 365.108 658.791 327.104L658.684 327.08Z" fill="#E1DDCD"></path> <path d="M477.054 617.031C506.577 610.616 537.252 595.859 569.179 590.077C569.771 567.15 567.791 544.229 563.278 521.742C557.045 499.822 563.076 473.444 562.212 454.501C555.807 448.618 562.212 452.646 561.449 449.136C556.714 442.016 561.853 431.876 558.268 425.85C557.102 419.809 547.904 419.981 545.745 425.231C543.125 427.82 535.568 421.233 532.977 423.879C528.011 427.36 522.426 425.763 517.258 428.597C473.081 431.963 427.883 454.185 378.394 461.88C346.726 461.52 369.757 499.52 374.522 515.759C370.419 518.175 372.363 519.743 373.082 523.727C373.817 525.914 370.463 528.876 374.378 530.401C373.601 533.565 375.645 553.126 378.97 544.252C379.035 546.735 379.848 549.141 381.302 551.156C351.419 560.994 317.62 583.835 281.735 593.831C276.279 588.322 251.693 593.227 262.792 603.281C301.268 623.777 355.147 636.362 397.107 639.843C419.001 630.81 457.046 630.278 477.069 617.031M264.504 596.276C264.404 598.419 262.676 600.159 262.676 602.317C262.676 600.159 264.404 598.419 264.504 596.276C266.865 595.543 269.298 594.953 271.601 594.032C269.255 594.953 266.851 595.543 264.49 596.276H264.504ZM465.265 615.967H465.136H465.265ZM509.24 607.063C508.924 607.063 508.607 607.063 508.29 607.063C508.593 607.063 508.909 607.049 509.226 607.063H509.24Z" fill="#E1DDCD"></path> <path d="M263.026 392.579C264.462 391.902 265.899 391.441 265.525 389.698C265.433 388.788 265.055 387.931 264.446 387.25C263.836 386.569 263.028 386.1 262.136 385.909C260.895 385.477 259.544 385.484 258.308 385.93C257.072 386.375 256.025 387.232 255.343 388.358C254.955 385.376 254.955 385.376 252.255 385.477C251.594 385.477 250.948 385.477 250.287 385.477C245.548 385.708 244.542 384.238 246.266 379.715C246.855 378.275 245.304 375.163 246.941 374.832C248.578 374.501 252.686 373.579 254.122 372.469C258.229 369.329 262.308 369.228 266.617 366.362C269.302 364.59 271.887 362.242 275.09 361.695C276.631 361.483 278.09 360.875 279.328 359.931C280.566 358.988 281.54 357.739 282.156 356.307C282.955 354.962 283.883 353.698 284.928 352.533C290.931 344.985 294.378 336.947 289.926 327.282C289.469 326.054 289.278 324.743 289.366 323.436C289.481 313.352 286.709 303.6 284.569 293.834C283.223 287.265 282.473 280.588 282.328 273.883C284.023 273.177 282.759 261.337 282.199 257.087C281.955 254.667 283.133 252.622 283.276 250.23C283.492 246.528 281.84 244.757 278.436 244.137C273.668 243.662 269.704 246.111 265.511 247.796C265.267 247.897 265.195 248.473 265.051 248.819C263.931 250.547 263.529 252.708 261.762 254.091C257.066 257.75 250.79 258.672 246.467 262.993C245.864 263.598 245.031 262.835 244.313 262.619C238.281 260.804 232.45 260.53 227.294 265.039C226.605 264.304 227.294 263.598 227.294 262.806C227.294 260.17 226.001 257.764 223.617 257.462C220.917 257.13 217.672 255.215 215.23 258.24C213.638 260.159 212.691 262.533 212.523 265.024C212.355 267.515 212.976 269.995 214.296 272.111C215.038 273.03 215.389 274.205 215.273 275.381C212.989 285.438 212.32 295.795 213.291 306.063C213.377 306.812 213.593 307.792 212.745 308.167C211.898 308.541 211.309 307.749 210.835 307.158C208.331 304.124 205.077 301.8 201.4 300.417C196.316 298.299 192.481 301.079 188.962 303.73C185.903 306.02 186.305 309.247 187.526 313.136C191.088 324.66 199.647 331.488 209.069 337.696C210.735 338.806 211.726 339.814 210.878 341.744C209.299 345.36 209.729 349.249 209.184 353.009C207.891 361.968 209.442 370.914 209.844 379.859C209.974 382.51 209.184 383.662 206.8 384.382C202.577 385.664 198.326 386.932 194.65 389.597C193.648 390.14 192.858 391.005 192.405 392.052C191.952 393.099 191.862 394.269 192.151 395.373C192.739 398.254 197.019 401.61 201.299 402.071C215.026 403.486 228.895 402.303 242.187 398.585C249.153 396.597 256.391 395.676 263.026 392.579Z" fill="white"></path> <path d="M199.023 601.477C195.902 591.507 192.623 581.595 189.256 571.713C187.162 565.583 185.168 559.381 182.481 553.512C179.302 546.6 177.872 544.223 170.504 549.251C169.651 549.817 168.524 550.585 167.614 550.44C163.554 549.744 161.084 552.947 158.194 554.512C152.155 557.787 147.951 564.061 140.612 565.496C139.456 565.728 138.257 567.249 137.621 568.394C135.844 571.843 137.188 575.842 136.176 579.364C135.165 582.885 137.766 585.16 138.358 588.058C139.224 592.291 140.683 596.38 142.692 600.202C145.273 604.766 147.384 609.583 148.991 614.577C151.476 623.069 157.472 629.285 162.182 636.313C165.418 641.11 170.431 640.806 174.65 636.69C175.085 636.214 175.618 635.838 176.211 635.588C176.805 635.338 177.445 635.22 178.089 635.241C184.2 635.241 188.924 630.995 194.631 629.445C196.784 628.894 198.272 626.938 201.161 627.996C203.458 628.851 204.961 626.967 205.279 624.648C205.165 624.214 205.078 623.774 205.019 623.33C204.253 615.794 201.291 608.723 199.023 601.477Z" fill="white"></path> <path d="M331.016 567.284C326.385 563.922 321.049 560.933 315.497 560.171C308.579 559.208 301.632 557.872 294.67 557.484C288.212 557.11 281.337 553.446 275.138 558.705C274.799 558.899 274.424 559.022 274.036 559.067C273.647 559.111 273.254 559.076 272.88 558.964C271.289 558.53 269.604 558.58 268.041 559.108C266.479 559.635 265.109 560.615 264.106 561.924C261.618 564.798 258.741 567.155 256.167 569.871C250.529 575.82 245.38 582.214 239.353 587.79C236.476 590.52 232.607 592.503 231.255 596.585C229.601 601.513 228.58 606.644 226.84 611.544C225.761 614.619 228.724 616.889 231.773 615.38C237.351 612.857 243.251 611.116 249.306 610.207C250.87 609.962 252.351 609.34 253.621 608.397C256.036 606.381 258.974 605.091 262.093 604.675C263.326 604.575 264.521 604.199 265.59 603.575C266.658 602.95 267.572 602.093 268.263 601.068C268.787 600.24 269.571 599.608 270.492 599.273C271.413 598.937 272.42 598.917 273.355 599.214C275.785 599.688 278.216 600.062 280.546 600.651C290.614 603.31 300.237 607.836 310.851 608.21C314.174 608.339 318.043 608.928 319.654 604.977C320.689 602.462 322.156 602.361 324.271 602.85C326.385 603.338 328.341 604.459 331.016 603.999C329.054 601.308 326.581 599.028 323.739 597.289C321.912 596.153 318.23 595.306 319.74 592.647C321.25 589.989 323.882 592.647 325.896 593.567C330.211 595.435 334.526 596.814 339.013 594.372C339.905 593.883 341.185 593.696 341.085 592.36C341.012 591.835 340.782 591.344 340.425 590.951C340.069 590.559 339.601 590.284 339.085 590.161C337.476 589.609 335.966 588.804 334.612 587.776C328.125 583.163 321.567 578.665 313.685 576.625C312.302 576.226 310.985 575.631 309.773 574.857C308.981 574.383 307.299 574.383 307.687 573.018C308.075 571.653 309.542 571.293 310.938 571.423C312.247 571.573 313.473 572.143 314.433 573.047C315.109 573.636 315.598 574.484 316.705 574.21C321.02 572.975 324.386 575.504 327.55 577.559C331.592 580.188 335.317 583.091 340.38 583.594C342.063 583.766 343.789 584.844 344.882 582.876C345.86 581.137 344.882 579.47 343.63 578.32C339.64 574.404 335.429 570.719 331.016 567.284Z" fill="white"></path> <path d="M382.648 563.899C380.899 563.594 380.487 561.953 379.648 560.762C378.34 557.409 378.625 553.75 377.772 550.309C375.44 540.798 374.928 530.969 372.469 521.415C371.682 517.316 371.207 513.161 371.047 508.987C370.663 504.631 367.265 500.101 363.939 500.101C358.479 500.101 352.807 499.128 347.618 501.77C346.667 502.299 345.61 502.598 344.528 502.646C343.447 502.694 342.369 502.489 341.377 502.046C336.585 500.173 333.131 502.583 332.349 507.854C332.209 509.163 331.883 510.445 331.382 511.658C328.397 518.076 329.164 525.059 330.202 531.39C332.022 542.323 333.259 553.372 335.462 564.247C336.102 567.383 337.467 570.171 340.523 570.447C344.112 570.786 347.73 570.376 351.158 569.242C353.759 568.313 355.423 567.136 356.034 568.937C357.243 572.465 357.669 575.006 358.991 578.52C359.972 581.133 358.508 586.941 361.763 586.52C365.019 586.099 366.484 583.529 366.54 579.943C366.573 575.851 365.759 571.799 364.152 568.051C363.484 566.425 362.474 564.45 364.905 563.303C365.382 563.027 365.908 562.849 366.452 562.78C366.996 562.712 367.548 562.754 368.076 562.903C368.605 563.053 369.099 563.308 369.531 563.653C369.962 563.998 370.323 564.427 370.592 564.915C372.248 567.133 373.32 569.747 373.706 572.509C374.075 578.418 377.402 581.424 382.62 582.875C385.051 584.385 383.572 559.964 382.648 563.899Z" fill="white"></path> <path d="M113.281 502.474C113.406 492.433 114.553 482.432 116.705 472.624C117.912 466.78 119.459 461.01 121.337 455.346C122.628 451.123 124.643 447.156 127.293 443.625C129.378 440.875 129.623 437.376 131.191 434.381C134.068 428.924 137.391 424.302 143.778 422.444C147.82 421.22 149.935 417.059 152.855 414.179C154.452 412.61 155.732 410.81 158.149 410.507C158.926 410.421 159.458 410.162 159.358 409.37C159.084 407.124 161.026 406.231 162.235 405.641C166.665 403.567 170.19 400.255 174.203 397.606C176.706 395.95 180.36 395.72 182.201 394.337C190.401 388.117 193.379 396.684 198.5 399.089C204.7 401.969 210.44 405.525 218.208 403.754C233.857 400.42 249.242 395.95 264.241 390.378C271.261 387.656 278.267 387.498 285.819 388.722C295.01 390.447 304.312 391.515 313.655 391.918C315.878 391.975 318.026 392.742 319.783 394.107C321.867 395.628 324.165 396.831 326.602 397.678C330.817 399.118 332.845 403.438 335.851 406.404C343.922 414.395 348.036 425.122 354.437 434.294C358.106 439.55 361.4 445.065 367.096 448.693C369.974 450.536 371.225 454.079 371.872 457.333C372.433 460.299 369.83 463.092 366.219 463.409C364.301 463.598 362.505 464.436 361.127 465.785C359.069 467.455 359.559 468.838 361.127 470.306C362.968 472.121 365.083 473.676 366.722 475.634C370.29 479.954 368.751 485.555 363.687 487.239C361.601 487.945 362.594 489.442 362.882 490.45C363.975 494.223 365.198 497.923 364.593 501.969C364.435 502.977 357.041 503.021 355.459 503.481C353.876 503.942 352.423 504.259 350.927 504.72C348.582 505.425 346.065 506.793 346.453 502.243C346.583 500.702 345.015 500.227 343.576 500.27C342.138 500.314 341.908 501.451 342.023 502.502C342.469 507.096 332.859 506.232 330.025 505.886C326.774 505.468 331.464 508.953 329.45 510.35C329.207 510.527 329.004 510.753 328.852 511.013C328.701 511.274 328.606 511.563 328.572 511.862C328.538 512.161 328.567 512.464 328.656 512.751C328.745 513.039 328.893 513.305 329.09 513.532C332.96 516.959 332.457 521.883 333.248 526.145C334.622 533.074 335.215 540.135 335.017 547.197C334.686 554.828 337.405 562.027 338.527 569.443C339.016 572.711 338.153 572.323 335.808 571.632C332.37 570.58 329.623 568.277 326.803 566.347C320.747 562.186 313.957 560.832 307.023 559.882C302.255 559.195 297.536 558.199 292.897 556.901C291.3 556.455 290.164 558.241 288.898 557.65C286.927 556.743 284.251 558.428 282.698 555.606C282.122 554.583 281.259 557.161 279.72 556.815C273.635 555.462 269.521 559.248 265.047 562.459C257.71 567.729 251.366 574.108 244.706 580.069C238.729 585.702 233.524 592.103 229.227 599.105C226.782 602.877 226.451 607.744 225.947 612.064C225.156 618.932 221.071 622.345 214.151 620.833C205.52 618.961 203.348 616.009 203.823 607.442C203.887 606.269 203.649 605.099 203.132 604.044C199.162 596.441 196.644 588.205 193.854 580.199C190.691 571.703 188.711 562.813 187.97 553.777C187.682 549.14 184.719 545.138 184.805 540.501C184.805 539.637 183.942 539.652 183.367 539.68C182.189 539.645 181.03 539.971 180.044 540.616C174.376 544.936 167.773 547.816 161.688 551.401C158.135 553.518 156.135 557.161 152.74 559.436C152.136 559.824 151.906 560.876 150.928 560.602C148.18 559.911 146.252 560.328 144.526 563.136C143.677 564.49 140.728 564.374 138.772 565.397C137.161 566.261 135.737 567.053 135.377 568.824C134.658 572.467 131.22 573.388 128.904 575.347C127.264 576.786 122.617 573.59 121.941 570.825C120.503 564.907 119.711 558.888 118.733 552.884C117.18 543.395 117.18 533.734 114.849 524.317C113.051 517.189 113.583 509.774 113.281 502.474Z" fill="#FBB900"></path> <path d="M230.139 224.518C231.363 224.074 232.693 224.01 233.954 224.332C235.216 224.654 236.351 225.349 237.209 226.324C239.212 228.449 240.794 227.769 242.595 226.252C246.776 222.654 251.174 219.373 255.66 216.136C259.123 213.566 262.93 211.489 266.969 209.966C270.956 208.459 274.836 206.687 278.583 204.662C287.221 200.327 297.31 203.723 302.479 211.888C304.903 215.746 304.772 216.873 302.479 221.368C301.927 222.451 304.961 224.041 305.774 225.284C308.213 228.983 304.874 232.77 301.535 235.486C295.002 240.804 288.774 245.935 281.937 250.761C279.919 252.206 276.551 253.984 273.226 252.727C272.793 252.564 272.317 252.547 271.874 252.681C271.43 252.814 271.043 253.089 270.773 253.464C267.187 257.149 254.034 259.244 250.448 262.799C244.453 268.912 243.829 266.253 237.136 269.779C236.918 269.895 236.541 270.025 236.396 269.923C229.427 265.357 221.544 273.276 218.685 276.687C213.487 282.872 213.197 285.704 204.98 285.357C201.401 285.357 197.95 284.034 195.297 281.643C188.401 275.733 190.942 269.331 191.682 262.539C192.161 257.784 197.01 252.149 199.71 247.987C206.867 236.96 211.919 229.821 224.39 225.342C226.48 224.807 228.324 223.94 230.139 224.518Z" fill="#FBB900"></path> <path d="M486.7 520.204C484.273 526.91 482.313 533.776 480.833 540.752C479.645 546.52 479.41 552.444 480.14 558.288C480.327 560.034 479.687 561.22 477.913 561.353C475.127 561.58 472.807 562.912 470.327 564.018C465.993 565.91 459.66 561.566 459.193 556.516C458.446 548.06 458.859 539.542 460.42 531.197C461.18 527.08 462.353 522.243 465.753 518.645C466.753 517.566 467.78 515.06 466.553 513.808C465.327 512.555 463.22 512.982 461.487 514.034C458.033 516.1 455.753 515.367 453.993 511.782C452.625 500.917 451.78 499.117 459.194 497.051C464.057 495.733 472.624 493.83 481.656 490.609C483.462 489.965 488.759 488.805 491.333 488.032C495.173 486.886 495.88 489.395 496.494 492.194C498.2 499.989 501.01 508.648 502.313 517.645C502.14 520.444 504.369 521.795 504.235 524.753C504.022 529.084 499.074 528.619 495.433 530.531C492.993 529.478 489.753 529.665 489.1 526.347C488.857 524.123 488.029 522.004 486.7 520.204Z" fill="#FBB900"></path> <path d="M221.281 317.77C221.281 312.558 226.335 307.982 231.969 308.04C237.603 308.097 242.497 313.309 242.613 319.04C242.729 324.772 237.4 330.806 232.085 330.691C225.914 330.561 221.252 324.988 221.281 317.77Z" fill="#FBB900"></path> <path d="M286.612 310.91C286.475 317.078 282.538 321.364 277.248 321.364C273.068 321.275 269.177 316.615 269.283 311.836C269.39 306.489 274.132 301.187 278.647 301.381C283.161 301.575 286.733 305.712 286.612 310.91Z" fill="#FBB900"></path> <path d="M349.778 580.33C349.863 579.42 350.261 578.568 350.905 577.917C351.548 577.267 352.398 576.86 353.309 576.764C356.824 576.103 357.069 574.262 355.643 571.516C355.249 570.65 354.908 569.762 354.62 568.856C351.522 570.697 348.049 571.257 344.879 572.623C343.539 573.198 341.824 573.356 341.061 571.804C340.297 570.251 341.651 569.23 342.732 568.238C345.138 566.024 348.496 566.8 351.291 565.578C354.087 564.356 355.095 563.493 354.85 560.618C354.605 557.742 354.85 557.512 350.844 552.494C350.989 552.796 346.392 554.795 342.314 551.631C340.254 550.035 340.873 549.446 341.622 547.404C341.812 546.878 342.117 546.4 342.516 546.007C342.915 545.614 343.398 545.315 343.928 545.133C348.092 543.22 352.415 541.624 356.205 538.95H356.392H356.104C358.716 536.627 361.069 534.028 363.121 531.2C363.467 530.668 363.986 529.964 364.562 529.878C369.361 529.072 367.992 526.096 367.588 522.861C366.839 517.11 365.009 511.445 364.505 505.608C364.389 504.27 364.029 503.968 362.588 504.17C357.692 504.666 352.832 505.463 348.035 506.556C344.586 507.299 341.049 507.546 337.53 507.29C336.089 507.29 334.447 507.606 334.115 505.622C334.027 504.827 334.249 504.028 334.734 503.391C335.22 502.754 335.932 502.328 336.723 502.2C341.882 500.762 347.084 499.583 352.329 498.62C355.211 498.088 357.92 496.463 360.974 496.823C362.66 497.01 362.732 495.931 362.415 494.508C361.19 487.721 360.081 480.921 358.943 474.134C358.366 470.698 359.346 467.391 359.951 464.07C360.17 463.175 360.647 462.365 361.323 461.739C362 461.112 362.845 460.698 363.755 460.547C387.185 453.358 410.658 446.313 434.362 440.001C446.927 436.665 459.29 432.424 471.97 429.577C480.832 427.593 489.895 426.313 498.8 424.358C505.414 422.92 512 421.353 518.613 419.886C527.778 417.859 537.043 416.349 546.337 415.141C549.133 414.768 551.611 413.157 554.68 413.704C555.855 413.814 556.974 414.253 557.91 414.971C558.845 415.688 559.559 416.654 559.969 417.758C561.856 421.813 560.905 425.896 561.237 429.965C562.908 450.971 564.262 472.021 566.251 492.998C567.692 508.699 568.643 524.428 569.407 540.172C570.098 554.449 571.914 568.583 573.816 582.745C574.508 587.849 574.32 591.372 567.894 592.652C558.614 594.607 550.732 600.632 541.121 601.739C529.68 603.047 518.844 606.929 507.979 610.25C499.074 612.968 490.068 615.398 481.264 618.503C473.67 621.192 465.976 623.794 458.555 626.814C450.212 630.178 441.581 632.565 433.238 635.829C422.474 640.042 411.796 644.815 400.269 646.497C394.828 647.12 389.318 646.631 384.073 645.059C369.735 641.192 355.801 636.016 341.55 631.947C333.582 629.675 325.7 627.274 317.631 625.088C311.435 623.406 305.152 621.94 298.899 620.631C293.394 619.467 287.746 618.431 282.111 617.626C276.477 616.821 271.65 613.04 266.261 611.012C265.908 610.841 265.597 610.595 265.348 610.293C265.1 609.99 264.92 609.637 264.82 609.258C264.071 605.894 262.241 605.707 259.417 606.915C251.03 610.538 241.996 612.292 233.48 615.628C220.093 620.861 206.404 625.247 193.321 631.343C179.401 637.827 165.28 643.909 150.899 649.373C142.7 652.478 134.516 655.656 126.259 658.819C134.156 664.225 143.406 664.657 151.908 667.446C166.072 672.047 180.727 674.779 195.295 677.511C206.952 679.682 218.782 680.961 230.454 683.104C237.457 684.383 244.373 685.979 251.477 686.784C258.97 687.618 266.434 688.639 273.927 689.387C279.691 689.948 285.541 690.825 291.391 691.285C299.95 691.96 308.481 693.024 317.026 693.887C326.233 694.822 335.484 695.44 344.663 696.763C350.427 697.553 356.335 697.496 362.156 697.827C372.819 698.43 383.525 698.804 394.217 698.833C410.471 698.833 426.71 699.552 442.964 699.552C452.359 699.552 461.696 698.732 471.163 698.344C480.173 697.994 489.156 697.125 498.066 695.742C506.481 694.405 514.881 692.952 523.181 690.911C531.827 688.769 540.674 686.842 549.219 684.311C558.585 681.536 568.11 678.977 576.928 674.477C584.897 670.408 593.153 666.856 600.373 661.537C614.076 651.472 626.67 640.171 633.01 623.78C635.719 616.807 638.154 609.718 636.497 601.81C634.845 593.378 630.109 585.86 623.212 580.718C612.406 572.326 600.542 565.389 587.923 560.086C584.681 558.749 581.309 557.742 578.009 556.577C577 556.218 575.891 555.801 576.107 554.493C576.323 553.184 577.548 553.155 578.614 553.213C583.273 553.715 587.787 555.127 591.9 557.368C599.465 560.991 607.246 564.327 614.134 569.086C624.811 576.462 635.042 584.327 639.523 597.454C641.608 603.652 641.843 610.32 640.2 616.649C636.31 633.284 626.511 645.965 613.989 657.151C608.455 662.051 602.554 666.521 596.338 670.523C589.509 674.795 582.268 678.374 574.724 681.206C565.876 684.714 556.87 687.748 547.793 690.479C539.147 693.068 530.415 695.08 521.654 697.05C514.118 698.747 506.538 700.343 498.901 701.364C496.495 701.68 493.8 702.399 491.25 701.493H491.048H491.293C485.76 703.923 479.766 703.146 474.002 703.851C463.108 705.203 452.128 704.8 441.192 705.073C430.255 705.346 419.577 704.685 408.698 704.469C399.058 704.282 389.419 704.354 379.88 703.88C370.34 703.405 360.758 703.247 351.176 702.126C345.412 701.45 339.389 701.536 333.51 700.99C323.769 700.07 314.072 698.689 304.316 697.956C295.239 697.266 286.189 696.202 277.169 695.239C267.644 694.218 258.019 693.801 248.624 691.371C242.346 689.811 235.943 688.8 229.488 688.351C222.932 687.82 216.837 685.318 210.281 684.843C204.863 684.441 199.517 683.118 194.113 682.428C182.197 680.99 170.597 677.884 158.969 675.023C151 673.068 143.118 670.71 135.107 668.984C128.838 667.69 124.271 663.003 117.974 661.795C121.475 653.974 128.824 652.939 135.265 650.839C143.089 648.295 150.424 644.7 158.046 641.753C160.165 640.933 160.165 640.315 159.012 638.517C152.715 628.798 146.778 618.863 142.657 607.993C139.228 598.921 135.913 589.791 132.887 580.574C131.879 577.512 130.885 576.678 128.147 578.633C127.02 579.289 125.839 579.848 124.616 580.301C119.602 582.717 119.717 582.688 117.484 577.799C114.098 570.366 113.32 562.271 111.389 554.478C109.671 547.174 108.353 539.783 107.44 532.336C106.518 525.507 106.317 518.634 106 511.761C105.726 506.355 106.907 500.949 105.481 495.5C104.674 492.452 106.533 489.303 106.806 486.068C108.13 470.688 112.436 455.711 119.487 441.971C123.521 434.106 129.573 427.406 136.043 421.094C147.571 409.865 161.433 402.1 174.949 393.776C181.874 389.751 189.301 386.657 197.038 384.574C199.92 383.682 203.306 382.963 205.684 381.109C208.335 378.981 206.289 375.357 206.39 372.482C206.693 362.805 205.468 353.1 207.024 343.424C207.312 341.569 206.707 340.16 204.329 339.111C197.045 336.077 190.848 330.921 186.548 324.316C182.096 317.314 180.669 309.363 185.223 301.527C188.249 296.307 192.528 296.322 199.416 298.378C202.467 299.13 205.383 300.347 208.062 301.987C208.062 297.501 208.234 293.504 208.062 289.521C207.874 286.387 205.093 288.241 204.214 288.443C202.386 288.979 200.448 289.019 198.599 288.559C196.75 288.099 195.057 287.155 193.695 285.826C191.942 284.268 190.608 282.296 189.815 280.091C189.022 277.885 188.795 275.517 189.156 273.202C190.064 266.833 190.857 260.492 193.998 254.827C201.203 241.8 209.964 230.025 223.58 222.965C228.508 220.406 233.912 218.997 239.359 221.873C239.857 222.173 240.444 222.292 241.019 222.208C241.595 222.124 242.124 221.843 242.514 221.413C249.958 215.444 257.942 210.178 266.362 205.683C273.092 201.887 280.552 199.559 288.25 198.853C290.736 198.561 293.251 199.038 295.455 200.221C297.66 201.405 299.445 203.236 300.57 205.467C303.063 209.867 306.017 214.094 304.619 219.615C304.543 220.058 304.583 220.513 304.734 220.936C304.886 221.359 305.144 221.736 305.484 222.031C309.172 226.416 309.1 230.025 305.484 234.468C303.462 237.023 300.979 239.178 298.164 240.823C294.187 243.023 290.8 246.143 286.636 248.012C285.31 248.601 285.022 249.823 284.705 251.161C283.683 255.827 283.334 260.615 283.668 265.38C284.129 277.443 284.705 289.463 287.457 301.325C288.567 306.128 289.446 310.973 290.656 315.703C292.439 323.446 293.223 331.385 292.991 339.326C292.903 342.38 292.203 345.385 290.931 348.163C289.658 350.941 287.84 353.437 285.584 355.501C275.639 365.385 263.328 372.571 249.82 376.378C248.509 376.752 246.304 376.048 246.938 378.808C247.428 381.022 247.241 383.251 250.93 383.122C258.624 382.818 266.331 383.092 273.985 383.941C286.276 385.235 298.639 385.911 310.801 388.456C321.991 390.832 332.105 396.771 339.62 405.379C350.989 417.801 359.519 432.079 367.43 446.773C368.294 448.383 369.289 449.907 370.182 451.503C370.96 452.869 371.219 454.379 369.678 455.299C368.136 456.219 367.012 454.997 366.277 453.703C363.554 448.829 361.018 443.84 358.15 439.038C351.234 427.535 343.971 416.205 333.813 407.161C327.374 401.44 319.672 397.317 311.334 395.127C298.798 391.72 285.944 391.001 273.192 389.376C270.969 389.186 268.748 389.76 266.895 391.001C254.689 398.646 241.032 403.693 226.779 405.824C218.006 407.318 209.031 407.177 200.309 405.407C195.612 404.329 191.664 401.281 187.96 398.218C187.468 397.644 186.792 397.256 186.047 397.12C185.302 396.984 184.533 397.108 183.868 397.471C171.032 403.156 159.072 410.636 148.349 419.685C142.942 424.047 138.199 429.172 134.271 434.897C128.678 443.177 124.043 452.061 120.452 461.381C114.688 477.11 113.564 493.372 113.766 509.705C113.954 523.58 116.331 537.354 119.256 550.984C120.308 555.916 120.971 560.963 121.72 565.966C122.354 570.15 123.291 570.999 126.98 569.129C132.902 566.124 138.507 562.645 144.271 559.324L177.283 540.187L179.661 538.749C182.297 537.225 183.133 535.456 182.297 532.092C178.681 517.326 176.202 502.344 173.825 487.333C172.859 481.309 172.038 475.27 170.943 469.289C170.683 467.952 170.525 466.773 171.793 466.327C173.436 465.766 173.637 467.333 173.94 468.412C176.274 476.578 179.099 484.587 179.949 493.199C180.523 496.601 181.312 499.962 182.312 503.264C184.156 511.057 186.419 518.749 188.292 526.527C188.969 529.288 191.015 531.344 191.548 534.177C192.384 538.49 191.692 540.431 187.802 542.415C185.957 543.35 185.352 543.781 186.145 546.57C187.802 552.422 190.468 558.202 190.021 564.586C189.934 566.024 191.462 567.059 191.851 568.583C195.569 582.961 201.419 596.563 206.26 610.552C207.211 613.327 210.007 615.211 209.92 618.59C209.92 620.114 211.549 619.654 212.428 619.366C215.771 618.259 219.027 616.907 222.37 615.843C223.075 615.581 223.65 615.053 223.97 614.373C224.291 613.693 224.332 612.915 224.085 612.206C223.148 610.207 223.926 608.597 224.531 606.972C229.027 594.823 234.877 583.579 244.604 574.536C250.395 569.273 256.465 564.324 262.788 559.712C269.503 554.694 277.097 554.464 284.792 554.694C296.897 555.264 308.897 557.218 320.556 560.517C324.57 561.695 328.259 563.781 331.334 566.613C336.997 571.53 343.179 575.973 347.574 582.256C348.64 583.795 350.182 585.247 348.697 587.073C347.213 588.899 345.138 588.18 343.669 587.504C336.68 584.312 329.836 580.833 322.933 577.44C320.397 576.203 318.121 574.291 315.023 574.564H314.893L315.138 574.651C320.743 578.13 326.406 581.538 331.939 585.118C335.671 587.519 339.475 589.862 342.3 593.371C343.265 594.578 344.49 595.901 343.424 597.569C342.357 599.237 340.844 598.475 339.49 598.087C334.547 596.649 329.619 595.211 324.591 593.946C327.04 595.628 329 597.857 331.291 599.697C331.792 599.994 332.186 600.442 332.414 600.978C332.642 601.513 332.693 602.107 332.559 602.673C332.199 604.312 330.988 604.6 329.576 604.528C328.539 604.528 327.501 604.384 326.464 604.327C324.908 604.24 323.135 603.047 323.25 606.44C323.25 608.568 320.369 608.712 318.467 608.885C312.195 609.309 305.896 608.677 299.835 607.015C292.141 605.089 284.388 603.263 276.881 600.718C272.832 599.28 270.829 602.156 268.149 603.507C266.549 604.298 268.235 605.491 269.215 605.98C272.065 607.593 275.202 608.639 278.452 609.057C292.068 610.15 305.095 614.118 318.322 617.123C334.173 620.718 349.519 626.397 365.211 630.739C371.998 632.608 378.856 634.233 385.715 635.771C393.151 637.439 400.283 636.332 407.589 634.032C414.419 631.889 421.162 629.416 427.92 627.116C441.105 622.63 454.463 618.662 467.619 614.176C476.826 611.012 486.135 608.036 495.63 605.736C503.484 603.823 511.293 601.667 519.075 599.481C528.614 596.821 538.326 594.952 547.749 591.775C553.787 589.733 559.363 586.642 565.444 584.729C566.986 584.241 566.41 582.875 566.467 581.739C566.899 573.615 565.026 565.679 564.421 557.641C563.571 545.736 562.721 533.831 561.539 521.955C560.242 509.432 558.657 496.894 557.721 484.371C556.957 474.22 556.726 463.926 556.712 453.674C556.712 444.817 556.366 435.946 556.006 427.104C555.804 422.071 553.686 420.691 547.62 422.992C538.974 426.284 529.637 425.867 520.76 428.024C514.074 429.62 507.273 430.741 500.587 432.194C488.983 434.695 477.398 437.25 465.832 439.857C455.745 442.172 445.803 445.349 435.788 448.096C423.915 451.359 412.214 455.443 400.038 457.513C397.502 457.945 395.47 459.411 393.064 459.857C385.413 461.295 378.006 463.782 370.47 465.608C367.804 466.269 367.214 467.42 367.862 469.993C369.836 477.872 373.77 497.484 374.231 499.583C376.897 511.862 379.303 524.213 382.704 536.29C384.678 543.292 385.845 550.467 387.272 557.498C388.75 563.834 389.842 570.253 390.542 576.721C390.888 583.454 392.005 590.126 393.871 596.606C395.11 600.488 394.851 604.571 395.312 608.554C395.975 614.305 396.911 620.056 395.96 625.965C395.009 631.875 393.208 632.766 387.444 630.408C380.874 627.72 373.842 626.311 366.925 624.657C356.738 622.141 346.579 619.38 336.55 616.304C332.789 615.139 329.144 613.428 325.354 612.206C324.403 611.904 323.495 611.803 323.798 610.524C324.101 609.244 324.864 609.158 325.902 609.316C326.555 609.323 327.204 609.415 327.833 609.589C334.101 612.565 339.36 610.351 344.331 606.483C343.308 604.815 341.262 605.434 339.865 604.514C339 603.953 338.164 603.45 338.64 602.486C339.259 601.25 339.879 602.63 340.513 602.774C345.715 603.938 350.888 604.988 355.931 602.127C356.695 601.696 357.718 601.552 357.732 600.2C354.577 599.222 351.421 598.101 348.193 597.325C344.965 596.548 345.787 594.995 347.487 593.428C349.829 591.554 352.517 590.157 355.398 589.316L357.948 588.338C355.182 587.936 354 586.254 352.3 585.362C351.579 584.974 350.859 584.6 351.089 583.637C351.32 582.673 352.329 582.429 353.309 582.616C353.957 582.745 354.591 582.889 355.225 583.047C356.291 583.32 357.66 584.485 358.323 583.134C358.712 582.4 357.992 580.876 357.415 579.927C356.522 578.489 355.34 579.41 354.404 580.028C353.723 580.411 352.957 580.621 352.176 580.638C351.394 580.656 350.62 580.481 349.922 580.129L349.778 580.33ZM264.474 257.214C264.691 257.214 265.008 257.703 265.036 257.056L264.402 257.3L264.301 257.429L264.474 257.214ZM377.761 611.473L377.646 611.631H377.877C379.188 613.543 381.551 613.356 383.323 614.363C385.096 615.369 385.888 614.492 385.269 612.766C384.749 610.883 384.387 608.959 384.188 607.015C381.479 608.726 380.038 609.862 377.761 611.401V611.473ZM355.355 543.81C352.271 545.895 343.193 545.506 344.13 549.216C346.133 550.74 348.697 552.091 352.257 550.15C352.919 549.719 356.349 547.189 355.355 543.738V543.81ZM354.043 594.55C354.043 594.161 354.043 593.73 353.496 594.219L354.115 594.463C356.45 596.692 359.692 595.901 362.444 596.778C365.989 597.972 364.447 598.403 368.208 596.864C369.361 596.39 375.686 594.147 375.528 592.911C375.369 591.674 374.851 591.947 373.28 591.473C370.055 590.568 366.672 590.369 363.362 590.887C360.052 591.406 356.893 592.63 354.101 594.478L354.043 594.55ZM334.346 592.249L334.864 592.522L334.605 591.99C332.89 589.791 330.282 588.784 328.049 587.418C320.599 582.903 313.164 578.389 304.763 575.729C299.558 574.162 294.265 572.9 288.913 571.948C287.602 571.689 285.714 571.689 285.844 569.661C285.973 567.634 287.558 567.893 289.071 567.792C295.687 567.384 302.328 567.838 308.827 569.144C312.04 569.762 315.397 568.583 318.438 570.136C322.847 572.393 327.17 574.78 331.608 576.98C334.582 578.712 337.743 580.101 341.032 581.121C337.228 576.692 332.934 574.018 329.086 570.797C324.521 566.864 319.091 564.061 313.236 562.616C306.281 560.838 299.166 559.75 291.996 559.367C286.149 558.914 280.268 559.146 274.475 560.057C269.748 560.991 266.117 563.623 262.342 566.139C256.234 570.106 250.589 574.74 245.512 579.956C237.658 588.295 233.134 598.734 228.523 609.028C227.86 610.466 226.736 612.134 227.312 614.204C235.295 611.329 243.163 608.583 250.901 605.434C257.961 602.558 265.397 600.43 271.866 596.16C272.519 595.712 273.279 595.445 274.069 595.387C274.859 595.329 275.651 595.482 276.362 595.829C286.016 600.143 296.276 602.573 306.463 605.132C310.002 605.933 313.672 605.973 317.227 605.247C317.137 604.874 316.937 604.537 316.651 604.28C316.366 604.024 316.009 603.859 315.628 603.809C308.846 601.566 302.054 599.314 295.253 597.051C290.195 595.355 285.166 593.644 280.123 591.918C278.855 591.473 277.457 590.84 277.774 589.287C278.091 587.735 279.676 587.361 281.233 587.504C281.755 587.535 282.275 587.602 282.789 587.706C296.247 591.228 309.259 596.232 322.472 600.517C324.259 601.106 325.801 601.365 326.377 600.229C327.127 598.791 325.08 598.216 324.043 597.698C312.81 591.972 301.186 587.043 289.259 582.947C287.515 582.357 283.769 583.435 284.648 579.827C285.527 576.218 288.97 577.957 290.944 578.389C301.449 580.934 311.579 584.672 321.752 588.238C325.873 589.747 329.893 591.688 334.346 592.22V592.249ZM195.857 397.73C199.835 399.256 204.034 400.13 208.292 400.318C222.405 400.59 236.457 398.386 249.806 393.804C252.918 392.726 256.477 392.079 259.633 388.528C255.31 388.528 251.953 388.528 248.595 388.528C244.186 388.614 243.653 388.183 243.292 383.812C243.25 383.031 243.163 382.253 243.033 381.482C242.111 376.508 244.215 372.856 249.028 371.303C252.37 370.239 255.915 369.693 259.114 368.255C267.558 364.445 275.642 359.944 282.039 353.043C287.457 347.205 290.051 340.347 288.596 332.382C287.284 325.193 285.714 318.133 284.186 311.016C282.746 304.589 282.169 298.076 281.305 291.577C280.045 282.771 279.294 273.899 279.057 265.007C279.057 261.527 278.884 257.99 279.057 254.467C278.508 254.48 277.973 254.636 277.503 254.918C277.033 255.2 276.644 255.6 276.377 256.078C267.169 266.933 264.085 279.902 263.581 293.647C263.204 302.228 264.45 310.804 267.255 318.924C268.019 321.066 267.5 322.748 265.814 323.626C262.587 325.265 260.786 328.385 257.99 330.441C257.169 331.059 256.549 332.31 255.483 331.433C254.417 330.556 254.878 329.29 255.569 328.298C257.471 325.423 259.46 322.763 261.333 319.945C261.953 319.025 263.062 318.09 262.385 316.81C260.944 314.093 260.786 311.059 260.224 308.184C257.832 296.178 257.342 284.158 260.829 272.239C261.78 268.96 262.76 265.697 263.812 262.174C260.93 262.879 258.797 263.899 256.376 263.713C253.734 263.683 251.14 264.423 248.912 265.84C244.863 267.997 240.771 269.852 236.045 270.053C232.499 270.144 229.06 271.279 226.16 273.317C222.168 276.193 219.445 280.506 215.252 283.223C214.709 283.594 214.3 284.128 214.085 284.748C212.312 290.024 214.085 295.459 213.552 300.88C213.43 304.038 213.608 307.201 214.085 310.326C214.085 311.145 214.531 312.31 213.494 312.756C212.456 313.202 211.866 312.31 211.116 311.792C206.793 308.787 202.672 305.236 197.312 303.856C194.43 303.123 191.865 302.591 189.372 305.064C186.88 307.537 187.225 310.182 187.831 313.029C189.156 319.312 193.45 324.229 197.399 328.543C200.698 332.137 205.108 335.876 210.453 337.313C212.355 337.817 212.903 338.751 212.817 340.951C212.055 354.025 212.094 367.133 212.932 380.203C213.307 384.516 211.678 385.853 208.35 386.989C203.926 388.513 199.704 390.555 195.122 391.734C194.099 392.007 192.456 392.41 192.471 393.632C192.454 394.295 192.695 394.94 193.144 395.43C193.592 395.92 194.213 396.219 194.877 396.263C195.684 396.349 196.318 396.838 195.814 397.888H195.972C195.439 397.845 196.102 398.118 195.857 397.658V397.73ZM206.145 621.681C196.779 597.238 185.482 573.673 178.436 548.109C173.94 550.783 169.574 553.314 165.28 555.973C157.023 561.092 148.478 565.794 140.553 571.473C139.112 572.508 138.334 573.4 139.011 575.283C141.259 581.509 142.311 588.094 145.078 594.176C146.693 597.417 148.042 600.782 149.113 604.24C152.283 616.03 158.608 626.311 164.199 636.965C165.035 638.532 166.015 638.805 167.701 638C180.266 631.904 193.292 626.958 206.145 621.609V621.681ZM296.924 211.204C297.112 208.659 296.42 207.135 294.115 206.388C291.781 205.532 289.309 205.117 286.823 205.165C270.339 205.999 257.745 215.029 245.468 224.719C244.661 225.352 243.782 226.157 244.561 227.365C246.837 230.859 247.313 234.913 248.278 238.867C248.466 239.658 248.768 240.535 249.719 240.305C252.486 239.644 255.483 239.673 257.817 237.66C266.862 229.724 277.805 224.252 289.59 221.772C294.921 220.679 295.786 217.617 296.593 213.62C296.735 212.821 296.831 212.014 296.881 211.204H296.924ZM202.586 284.532C206.289 284.532 208.595 283.008 208.854 280.218C209.387 274.266 209.949 268.328 210.425 262.375C210.583 260.204 211.044 257.559 212.745 256.825C218.292 254.467 219.07 248.874 221.823 244.662C223.226 242.486 224.741 240.384 226.361 238.364C228.994 234.811 231.945 231.505 235.18 228.486C236.952 226.962 236.189 226.143 234.359 225.697C231.939 225.086 229.379 225.372 227.154 226.502C211.592 234.051 201.606 246.531 195.741 262.447C193.767 267.767 192.701 273.432 195.079 279.183C196.62 282.878 198.292 284.359 202.543 284.446L202.586 284.532ZM378.237 577.512C378.678 577.212 379.012 576.781 379.194 576.28C379.375 575.779 379.393 575.234 379.245 574.722C378.165 569.244 376.868 563.809 375.975 558.303C374.692 550.323 372.502 542.573 370.657 534.737C369.966 531.79 368.712 531.718 366.219 533.299C364.418 534.493 364.778 536.319 364.087 537.771C362.414 540.8 361.172 544.047 360.398 547.419C359.087 554.334 359.346 561.207 359.663 568.137C359.79 572.145 360.483 576.114 361.724 579.927C361.954 580.603 361.724 581.624 362.934 581.566C363.338 581.561 363.727 581.414 364.032 581.151C364.338 580.888 364.541 580.526 364.605 580.129C365.113 578.786 365.276 577.338 365.081 575.916C363.669 569.687 363.439 563.25 364.404 556.937C365.099 551.842 366.425 546.853 368.352 542.084C372.617 554.104 371.205 566.757 378.194 577.426L378.237 577.512ZM274.388 241.067C269.209 241.043 264.039 241.49 258.941 242.404C257.27 242.796 255.803 243.79 254.82 245.194C252.617 247.935 250.781 250.951 249.359 254.166C248.999 255.007 248.916 255.942 249.123 256.834C249.331 257.725 249.817 258.528 250.512 259.126C251.823 260.564 253.105 259.342 254.388 258.738C259.532 256.351 263.394 252.124 268.134 249.191C271.16 247.235 272.789 244.489 274.345 241.01L274.388 241.067ZM264.157 237.358C267.745 238.537 270.555 237.358 273.322 237.602C278.466 238.005 282.832 236.696 286.06 232.455C287.009 231.214 288.034 230.032 289.129 228.918C290.21 227.796 291.665 226.416 290.786 225.093C289.907 223.771 288.452 225.395 287.27 225.755C286.089 226.114 284.792 226.574 283.552 226.962C276.477 229.153 269.882 232.661 264.114 237.3L264.157 237.358ZM387.127 626.167C387.127 623.392 387.819 620.085 385.052 618.733C379.015 615.858 372.79 612.738 365.801 616.203C364.188 617.008 362.502 617.641 360.167 618.662C366.623 619.481 371.911 623.895 378.309 620.588C379.231 620.114 381.191 619.783 381.94 620.919C383.15 622.615 380.355 622.759 380.225 624.125C382.381 625.174 384.701 625.846 387.084 626.109L387.127 626.167ZM227.543 247.868L236.794 244.403C238.086 243.977 239.257 243.248 240.208 242.276C241.159 241.305 241.863 240.12 242.259 238.821C242.656 237.522 242.735 236.147 242.488 234.812C242.242 233.476 241.677 232.219 240.843 231.146C240.295 230.413 239.748 230.039 238.955 230.773C233.984 235.359 229.474 240.248 227.543 247.868ZM356.709 606.153C366.306 611.156 374.577 611.099 380.73 605.937C372.66 602.889 364.721 600.387 356.709 606.153ZM363.597 612.493C353.784 607.533 347.184 607.763 341.752 612.968C345.368 614.304 349.064 615.413 352.819 616.289C356.868 617.022 360.023 614.319 363.597 612.493V612.493ZM368.9 566.901C367.66 572.839 370.571 578.748 368.222 584.715C370.773 583.881 372.963 583.033 375.225 582.486C376.248 582.242 377.776 581.883 378.294 583.335C378.813 584.787 377.502 585.664 376.306 586.21C375.11 586.757 373.842 586.757 373.006 587.864C378.093 590.121 378.986 590.366 381.436 590.193C380.571 586.268 381.104 581.566 375.672 580.129C374.822 579.899 374.231 578.691 373.64 577.857C371.234 574.593 370.73 570.538 368.9 566.901V566.901ZM238.004 248.817C234.027 250.6 230.641 252.239 227.168 253.648C224.964 254.539 225.31 256.15 225.511 257.846C225.536 258.892 225.8 259.919 226.281 260.848C226.763 261.777 227.451 262.585 228.292 263.209C229.085 263.713 229.459 262.792 229.733 262.361C232.788 258.321 236.534 254.741 238.004 248.817V248.817ZM284.936 241.398C284.936 241.901 284.604 242.836 285.469 243.21C286.333 243.583 287.198 242.735 287.774 242.088C291.708 237.617 295.93 233.361 298.279 227.71C298.682 226.732 300.844 225.841 298.783 224.648C297.342 223.785 296.42 225.151 295.743 226.272C293.607 229.661 291.04 232.758 288.106 235.489C286.327 236.979 285.192 239.095 284.936 241.398V241.398ZM215.281 266.531C214.517 270.183 214.964 273.073 214.128 275.776C214.08 276.035 214.097 276.302 214.177 276.552C214.258 276.803 214.399 277.03 214.589 277.213C215.223 277.731 215.771 277.127 216.232 276.71L221.088 272.253C218.249 271.333 217.211 269.205 215.338 266.459L215.281 266.531ZM239.316 264.892C242.37 264.475 245.079 264.719 246.607 262.519C247.601 261.009 245.295 259.557 245.166 257.832C245.002 257.056 244.771 256.296 244.474 255.56C243.754 259.227 241.131 261.34 239.373 264.82L239.316 264.892ZM370.24 598.978C372.286 599.381 381.22 601.94 382.387 599.711C383.684 597.195 381.94 594.852 378.525 594.09C380.917 596.634 371.551 597.008 370.24 598.978ZM297.789 235.402C302.112 232.915 303.913 230.011 303.149 226.129C301.507 229.306 299.532 232.254 297.789 235.402V235.402ZM225.554 267.781L220.641 260.161C220.093 265.251 220.915 266.646 225.554 267.781V267.781ZM300.786 216.251C299.23 218.048 298.783 219.486 299.777 221.355C301.363 220.133 301.103 218.523 300.786 216.251ZM249.777 245.539C249.777 244.964 249.359 244.805 248.999 244.949C248.832 245.019 248.682 245.123 248.558 245.254C248.434 245.385 248.338 245.541 248.278 245.711C248.244 245.801 248.234 245.898 248.247 245.993C248.26 246.089 248.297 246.179 248.355 246.256C248.412 246.333 248.488 246.395 248.575 246.435C248.662 246.476 248.758 246.494 248.855 246.488C249.089 246.46 249.306 246.349 249.465 246.174C249.623 246 249.714 245.774 249.719 245.539H249.777ZM269.95 239.198L269.489 238.839C269.383 239.001 269.295 239.174 269.229 239.356C269.229 239.356 269.431 239.558 269.474 239.543C269.612 239.438 269.742 239.322 269.863 239.198H269.95ZM291.838 693.398L291.694 693.082C291.694 693.168 291.506 693.24 291.492 693.326C291.478 693.413 291.492 693.528 291.607 693.628L291.838 693.398ZM272.414 692.075L272.702 692.176L272.789 691.932C272.699 691.886 272.601 691.862 272.5 691.86C272.5 691.86 272.356 691.989 272.328 692.075H272.414ZM194.156 680.832L194.012 681.048H194.257L194.156 680.832Z" fill="#383536"></path> <path d="M62.8756 494.466C60.6878 491.907 60.888 488.6 60.7736 485.652C60.4304 477.687 59.0434 469.837 58.7002 461.872C58.2712 452.354 59.5009 442.966 60.8451 433.548C62.0104 425.536 65.3893 418.014 70.5972 411.838C75.2441 406.102 80.6688 401.049 86.7125 396.828C94.0052 391.753 100.769 385.959 108.676 381.689C117.256 377.102 126.264 374.069 135.373 371.136C145.176 367.856 155.147 365.111 165.244 362.912C170.835 361.761 176.155 359.533 181.889 358.9C185.078 358.461 188.322 358.67 191.429 359.515C194.536 360.36 197.443 361.823 199.977 363.817C200.295 363.993 200.57 364.235 200.786 364.528C201.001 364.82 201.152 365.156 201.226 365.512C201.301 365.869 201.298 366.237 201.218 366.592C201.139 366.947 200.984 367.281 200.764 367.57C199.777 368.907 198.862 367.642 198.147 367.096C191.912 362.236 184.934 362.48 177.899 364.364C160.197 369.094 142.466 373.839 125.321 380.423C107.918 387.109 92.2606 396.713 80.3493 411.393C74.4008 418.711 68.8098 426.503 66.8794 436.136C65.7069 441.887 66.7078 447.811 66.1788 453.648C65.0348 466.387 67.4514 479.01 68.3237 491.648C68.724 497.399 70.0109 503.452 70.9547 509.318C72.2988 517.609 73.7287 525.886 75.2445 534.148C79.2548 557.171 85.5642 579.728 94.0767 601.478C98.1091 611.542 101.226 621.922 105.345 631.9C107.404 636.832 109.92 641.505 112.408 646.278C113.052 647.471 114.739 648.665 113.238 650.376V650.505C113.238 649.211 112.423 649.283 111.522 649.628V649.499C107.232 647.673 105.802 643.489 103.943 639.88C97.5487 627.32 91.9792 614.353 87.2702 601.061C82.8517 588.653 79.0481 576.058 75.5448 563.334C72.2845 551.487 69.8251 539.453 66.8223 527.549C64.3771 517.829 63.5619 507.708 61.9175 497.773C61.703 496.479 63.233 495.76 62.6325 494.509H62.418L62.8756 494.466Z" fill="#383536"></path> <path d="M464.652 515.893C462.589 515.447 460.436 515.692 458.524 516.591C456.223 517.698 454.588 517.028 453.853 514.744C452.242 510.081 451.186 505.242 450.707 500.329C450.489 497.594 452.6 496.39 454.507 496.008C467.008 493.518 479.02 489.169 491.44 486.434C495.634 485.518 496.887 486.338 497.99 490.66C499.502 496.883 500.823 503.16 502.444 509.342C503.669 513.965 504.296 518.724 505.753 523.292C506.624 526.027 506.338 528.175 502.961 529.405C500.326 530.411 497.639 531.274 494.912 531.99C490.541 533.112 488.866 531.84 487.845 527.313C487.654 526.506 487.967 525.576 486.918 524.646C483.912 529.316 482.313 534.758 482.315 540.319C482.424 546.269 481.689 552.464 485.121 557.948C485.747 558.96 485.121 559.918 484.059 560.259C477.372 562.42 470.563 564.267 464.067 566.988C462.092 567.823 461.506 566.701 460.866 565.142C456.086 553.353 456.032 541.263 458.973 529.132C459.777 525.822 461.697 522.8 463.168 519.654C463.933 518.537 464.402 517.243 464.53 515.893L464.707 515.688L464.652 515.893ZM469.269 509.985C469.805 509.757 470.403 509.727 470.959 509.899C471.515 510.072 471.992 510.437 472.306 510.929C473.096 512.159 472.142 513.035 471.53 513.924C465.932 522.13 462.269 531.047 461.697 541.14C461.175 547.32 461.78 553.545 463.481 559.507C464.189 561.819 465.265 563.009 467.703 561.614C470.089 560.329 472.686 559.486 475.37 559.124C479.456 558.495 479.85 556.622 479.047 553.093C476.105 540.169 480.409 528.544 485.788 517.151C485.927 516.733 486.189 516.367 486.539 516.101C486.889 515.835 487.311 515.682 487.749 515.661C488.907 515.661 488.893 516.714 489.111 517.534C489.533 518.902 489.955 520.379 490.473 521.788C492.938 529.46 492.938 529.46 500.619 526.424C500.85 526.342 501.109 526.328 501.34 526.246C502.702 525.699 503.043 524.947 502.702 523.36C500.156 513.295 497.595 503.229 495.444 493.067C494.79 490.031 493.496 489.826 491.154 490.469C486.878 491.631 482.615 492.862 478.312 493.942C471.176 495.766 464.017 497.526 456.835 499.222C454.874 499.687 454.044 500.589 454.588 502.641C455.242 505.02 455.855 507.414 456.563 509.78C457.108 511.64 457.925 512.378 460.267 511.9C462.977 511.325 465.715 510.176 469.214 509.985H469.269Z" fill="#383536"></path> <path d="M334.152 565.176C333.715 565.225 333.273 565.183 332.854 565.052C332.434 564.92 332.046 564.703 331.714 564.412C331.382 564.122 331.114 563.765 330.925 563.365C330.737 562.965 330.633 562.53 330.62 562.087C329.089 552.705 327.997 543.224 326.224 533.928C324.451 524.632 324.238 515.208 323.146 505.855C322.618 500.471 322.481 495.056 322.735 489.652C323.174 474.25 323.798 458.847 324.408 443.445C324.493 441.128 324.919 438.826 325.146 436.509C325.245 435.551 325.373 434.536 326.564 434.636C327.755 434.736 327.287 435.808 327.33 436.495C327.841 444.227 328.313 451.959 328.748 459.691C330.039 480.986 331.088 502.308 332.719 523.588C333.4 532.312 334.038 541.05 335.031 549.774C335.598 554.65 337.201 560.285 334.053 565.219L334.152 565.176Z" fill="#383536"></path> <path d="M113.192 649.939C111.947 651.411 112.292 649.586 111.947 649.171V649.284L113.281 650.052L113.192 649.939Z" fill="#383536"></path> <path d="M350.167 579.879C351.152 582.29 347.392 580.637 350.615 580.912H349.63L350.167 579.879Z" fill="#383536"></path> <path d="M255.036 359.952C252.204 359.769 249.467 358.862 247.097 357.318C244.726 355.774 242.801 353.646 241.512 351.144C240.691 349.287 239.62 347.69 240.046 345.514C240.324 344.063 241.028 342.931 242.539 342.946C250.079 342.946 256.87 340.044 263.881 337.969C266.404 337.229 268.766 335.981 271.215 335.067C271.881 334.743 272.629 334.623 273.364 334.724C274.098 334.825 274.786 335.142 275.337 335.633C276.804 337.084 275.249 338.23 274.677 339.478C273.355 342.095 272.17 344.778 271.127 347.516C270.28 350.536 268.31 353.128 265.612 354.771C262.048 356.875 259.217 360.503 255.036 359.952ZM265.143 350.143C267.46 349.229 267.387 346.094 268.795 344.208C269.22 343.613 270.262 341.785 269.968 341.306C269.675 340.827 267.812 341.741 267.035 341.944C263.852 342.801 260.904 344.223 257.691 345.093C253.155 346.242 248.543 347.071 243.889 347.574C246.104 352.58 249.008 354.089 253.892 354.249C258.366 354.322 261.432 351.521 265.143 350.07V350.143Z" fill="#383536"></path> <path d="M251.77 291.901C250.958 296.379 249.693 300.789 245.162 303.779C243.85 304.633 242.538 306.066 240.757 304.991C239.931 304.498 239.297 303.794 238.94 302.974C238.582 302.154 238.518 301.256 238.757 300.403C239.679 296.2 241.069 292.135 244.615 289.062C245.834 287.974 247.037 286.072 249.021 286.94C250.092 287.323 250.965 288.041 251.472 288.956C251.98 289.872 252.086 290.92 251.77 291.901V291.901Z" fill="#383536"></path> <path d="M269.284 295.866C269.191 291.54 271.366 288.251 273.808 285.179C274.196 284.668 274.726 284.306 275.319 284.145C275.913 283.984 276.538 284.033 277.104 284.285C277.573 284.57 277.96 284.991 278.219 285.501C278.479 286.01 278.601 286.589 278.572 287.17C278.919 291.958 277.117 296.025 274.809 299.876C274.471 300.506 273.933 300.983 273.295 301.217C272.657 301.45 271.961 301.425 271.339 301.145C269.057 300.164 269.311 298.001 269.284 295.866Z" fill="#383536"></path> <path d="M1174.31 316.496C1182.46 310.133 1189.76 304.49 1196.98 298.767C1203.63 293.473 1210.55 288.525 1217.71 283.944C1222.29 281.002 1222.82 278.905 1220.03 274.038C1219.1 272.453 1220.13 272.161 1220.67 271.46C1222 269.753 1222.22 267.33 1220.86 266.316C1216.89 262.987 1218.38 257.654 1216.32 254.189C1212.02 247.118 1211.27 238.515 1205.89 232.047C1204.8 230.719 1202.86 229.175 1204.65 227.237C1206.43 225.3 1207.66 227.74 1208.96 228.437C1213.48 230.809 1218.51 231.129 1223.33 232.085C1226.27 232.647 1227.34 234.056 1228.05 236.843C1232.19 253.288 1238.14 269.006 1247.73 283.148C1249.68 286.017 1249.31 287.461 1246.38 289.248C1237.93 294.406 1231.32 302.129 1222.49 306.835C1214.29 311.182 1205.74 314.945 1198.92 321.481C1198.37 322.028 1197.67 322.387 1196.9 322.506C1196.13 322.625 1195.35 322.498 1194.66 322.142C1188.04 319.726 1181.23 317.838 1174.31 316.496V316.496Z" fill="white"></path> <path d="M1189.2 220.194C1178.77 231.32 1169.49 242.581 1158.82 252.729C1144.98 265.928 1131.53 279.677 1120.5 295.493C1119.64 296.703 1119.1 298.238 1117.03 298.002C1110.14 297.154 1103.17 296.614 1096.26 295.76C1094.83 295.589 1092.88 295.501 1092.34 293.787C1091.72 291.817 1093.11 290.303 1094.48 288.958C1118.45 265.214 1143.63 242.778 1168.23 219.723C1169.09 218.746 1170.2 218.033 1171.45 217.666C1172.69 217.299 1174.02 217.293 1175.27 217.65C1179.64 218.749 1184.11 219.295 1189.2 220.194Z" fill="#FBB900"></path> <path d="M1081.5 292.454C1074.33 291.385 1067.22 289.814 1059.96 289.597C1058.02 289.545 1057.85 288.128 1057.69 286.711C1055.54 267.63 1051.58 248.797 1045.86 230.467C1045.52 229.79 1045.46 229.013 1045.68 228.291C1045.9 227.57 1046.38 226.959 1047.03 226.58C1061.51 215.46 1075.28 203.433 1090.1 192.717C1090.59 192.248 1091.19 191.914 1091.84 191.746C1092.5 191.578 1093.19 191.582 1093.85 191.759L1115.35 198.081C1108.85 203.011 1102.99 207.492 1097.09 211.935C1089.28 217.822 1081.72 222.775 1075.26 230.138C1073.83 231.775 1072.55 234.647 1070.36 235.39C1066.54 236.671 1065.78 239.723 1066.87 243.245C1067.52 245.796 1068.52 248.245 1069.83 250.524C1076.98 261.63 1078.4 274.4 1080.84 286.872C1081.2 288.518 1082.21 290.27 1081.5 292.454Z" fill="white"></path> <path d="M1212.94 225.096C1218.28 224.783 1223.42 229.995 1229.98 230.3C1231.03 230.343 1231.11 231.66 1231.3 232.532C1233.97 244.951 1240.24 256.215 1243.05 268.583C1244.39 274.509 1247.28 279.834 1248.96 285.623C1249.89 288.856 1249.06 290.875 1246.1 292.929C1233.21 302.125 1219.53 310.205 1207.47 320.58C1203.47 324.017 1199.31 326.994 1192.97 324.112C1187.57 321.672 1181.31 321.152 1175.47 319.746C1174.31 319.466 1172.74 319.346 1172.46 317.941C1172.19 316.535 1173.76 316.201 1174.76 315.517C1179.41 312.393 1182.81 307.95 1187.2 304.538C1196.33 297.397 1205.85 290.763 1215.71 284.666C1219.05 282.652 1220.42 280.473 1219.23 276.411C1215.55 263.806 1212.23 251.193 1206.85 239.096C1205.47 236.006 1204.58 232.703 1203.49 229.479C1201.94 224.776 1202.99 223.538 1207.97 224.206C1209.19 224.4 1210.4 224.646 1212.94 225.096ZM1182.12 316.346C1188.06 317.389 1192.83 318.066 1197.5 319.155C1198.22 319.34 1198.99 319.32 1199.7 319.096C1200.41 318.872 1201.05 318.454 1201.54 317.888C1214.22 307.242 1227.95 298.031 1241.5 288.597C1243.83 287.02 1243.99 285.604 1242.95 283.387C1239.87 276.813 1237.48 269.942 1235.81 262.881C1233.46 253.225 1227.24 245.052 1225.52 235.198C1225.45 234.917 1225.31 234.659 1225.11 234.446C1224.92 234.233 1224.67 234.072 1224.4 233.976C1219.07 233.718 1214.44 230.121 1208.7 230.3C1210.33 236.665 1213.09 242.149 1215.43 247.788C1219.03 256.471 1220.73 265.764 1224.58 274.436C1227.9 281.903 1226.05 284.426 1218.83 288.948C1211.01 293.892 1203.37 299.162 1195.88 304.679C1191.38 307.963 1187.29 311.922 1182.09 316.422L1182.12 316.346Z" fill="#383536"></path> <path d="M1115.31 301.389C1107.75 298.379 1098.61 298.257 1092.41 296.282C1088.11 294.897 1088.26 293.44 1091.14 290.07C1099.54 279.823 1108.6 270.131 1118.25 261.055C1127.05 253.021 1135.18 244.304 1143.88 236.178C1150.79 230 1157.32 223.411 1163.44 216.449C1165.53 213.967 1168.02 211.788 1172.06 213.807C1174.61 215.075 1177.77 215.131 1180.66 215.691C1182.78 216.104 1184.96 216.313 1187.04 216.9C1192.9 218.523 1193.33 220.439 1189.24 224.676C1176.41 238.046 1163.31 251.159 1150.81 264.845C1143.74 272.624 1135.94 279.659 1128.39 286.961C1126.24 289.164 1119.31 299.064 1115.31 301.389ZM1096.35 291.344C1100.92 293.754 1105.68 292.462 1110.03 293.951C1112.39 294.75 1114.5 293.679 1116.46 291.599C1124.8 282.749 1132.91 273.639 1141.39 264.965C1152.36 253.731 1163.62 242.744 1174.42 231.339C1177.32 228.222 1180.84 225.37 1183.29 221.16C1180.67 221.705 1177.96 221.68 1175.35 221.088C1171.42 220.257 1167.76 219.2 1163.98 222.995C1148.86 238.186 1133.37 252.941 1117.98 267.818C1110.26 275.178 1103.04 283.039 1096.36 291.35L1096.35 291.344Z" fill="#383536"></path> <path d="M1074.33 292.616C1069.67 292.001 1057.57 289.966 1056.89 288.113C1054.08 280.085 1051.93 271.84 1050.47 263.462C1048.64 254.394 1046.29 245.44 1043.42 236.645C1042.74 234.941 1042.61 233.061 1043.06 231.281C1043.52 229.5 1044.53 227.912 1045.95 226.746C1057.73 215.779 1077.5 198.458 1091.65 190.534C1095.58 190.515 1099.22 192.262 1102.72 192.824C1106.08 193.126 1109.39 193.886 1112.55 195.083C1116.38 196.831 1116.53 199.824 1113.39 202.541C1101.53 212.851 1087.99 220.828 1076.11 231.184C1074.17 232.889 1072.48 234.882 1070.58 236.671C1070.17 237.018 1069.87 237.484 1069.74 238.004C1069.61 238.524 1069.64 239.073 1069.84 239.574C1072.97 250.48 1075.73 261.476 1079.2 272.281C1081.05 278.191 1081.82 284.281 1084.36 289.979C1085.51 292.566 1083.04 293.829 1080.62 293.791C1078.5 293.538 1076.4 293.146 1074.33 292.616ZM1109.46 199.192C1100.34 197.773 1091.68 195.588 1090.8 196.663C1090.22 197.352 1064.12 217.36 1055.12 225.159C1049.52 230.015 1047.07 233.823 1050.44 241.952C1055.01 252.978 1056.45 265.197 1058.81 276.997C1059.46 280.23 1059.81 284.533 1064.01 285.533C1068.21 286.533 1072.29 286.638 1076.33 287.179C1078.08 287.419 1078.78 286.775 1078.15 285.15C1073.56 273.087 1071.52 260.295 1067.41 248.101C1065.85 243.398 1062.37 237.974 1067.58 233.15C1070.73 230.213 1073.94 227.349 1077.33 224.637C1087.61 216.395 1098.03 208.256 1109.46 199.192V199.192Z" fill="#383536"></path> <path d="M625.57 181.384C641.042 169.716 654.224 157.723 671.437 148.338C677.866 144.831 684.637 139.368 691.353 136.41C695.778 134.458 700.365 132.844 704.76 130.697C705.775 130.099 706.939 129.808 708.106 129.862C709.272 129.916 710.389 130.313 711.316 131.002C715.125 133.366 719.114 135.437 723.249 137.197C732.605 141.694 739.579 148.951 746.15 156.79C750.839 162.379 755.939 167.611 761.41 172.442C766.071 176.598 768.755 181.762 771.224 187.238C773.459 192.018 775.525 196.93 777.97 201.622C778.422 202.348 778.638 203.199 778.588 204.061C778.537 204.923 778.223 205.755 777.688 206.444C776.542 208.317 774.848 209.801 772.839 210.692C770.831 211.582 768.609 211.835 766.478 211.416C759.287 210.178 752.57 207.13 746.961 202.557C745.39 201.169 743.43 200.285 741.33 200.017C739.23 199.749 737.084 200.109 735.164 201.052C715.489 208.959 697.135 219.025 680.732 232.614C676.372 236.111 672.301 239.954 668.561 244.104C664.785 248.453 664.27 254.208 663.807 259.675C663.158 267.16 659.367 273.878 658.252 281.257C657.896 283.589 655.046 284.13 653.437 285.572C652.409 286.492 651.043 287.012 650.038 287.933C647.185 290.49 645.833 290.292 643.828 286.915C640.964 282.054 639.094 276.626 636.224 271.85C631.925 264.774 628.759 257.124 624.758 249.921C623.904 248.535 623.34 246.988 623.099 245.369C621.144 229.691 618.923 214.794 616.59 199.153C615.834 194.254 616.055 189.709 621.381 186.809C623.37 185.63 623.699 183.061 625.57 181.384Z" fill="white"></path> <path d="M697.832 181.421C694.157 176.965 695.496 167.131 700.326 163.266C707.425 157.549 716.276 157.448 721.07 163.035C725.864 168.622 725.362 181.108 719.875 185.662C715.102 189.636 702.622 187.233 697.832 181.421Z" fill="#FBB900"></path> <path d="M656.163 223.753C652.022 227.604 647.164 228.273 641.013 225.05C640.404 224.74 639.863 224.317 639.418 223.802C634.829 218.031 637.15 203.694 643.29 199.34C650.056 194.605 660.283 198.947 662.373 207.44C663.919 213.562 661.836 218.649 656.163 223.753Z" fill="#65697C"></path> <path d="M633.019 173.649C645.458 162.115 659.271 152.154 674.133 144.002C683.893 138.679 694.027 134.23 704.097 129.596C705.723 128.808 707.514 128.438 709.303 128.521C711.091 128.604 712.82 129.137 714.329 130.07C727.698 137.353 739.806 146.683 750.22 157.73C757.751 165.542 764.555 174.021 770.553 183.066C773.413 187.487 775.667 192.311 778.268 196.904C780.475 200.804 782.761 204.954 779.185 209.044C775.608 213.133 770.562 213.89 765.471 212.695C759.916 211.282 754.613 209.071 749.727 206.13C746.218 204.082 742.735 200.641 739.124 200.474C735.514 200.307 731.945 203.947 728.133 205.39C711.66 211.644 696.262 220.51 682.545 231.639C676.641 236.51 671.317 242.042 666.683 248.123C665.229 249.99 665.61 252.546 665.425 254.885C664.695 263.771 665.551 272.886 661.527 281.361C659.922 284.71 658.509 288.09 654.44 289.521C646.969 292.189 643.907 291.188 639.21 284.287C630.415 271.356 625.537 256.688 621.076 241.726C617.036 228.058 617.018 214.006 615.161 200.132C614.645 197.484 614.827 194.734 615.689 192.146C616.55 189.559 618.063 187.222 620.079 185.362C623.019 182.205 626.24 179.319 629.701 176.742C630.871 175.782 631.979 174.749 633.019 173.649V173.649ZM641.265 173.084C634.496 178.463 628.194 184.405 622.43 190.843C621.531 191.704 620.845 192.76 620.427 193.924C620.009 195.089 619.872 196.33 620.026 197.545C620.747 203.782 621.012 210.106 621.68 216.33C623.147 231.237 627.248 245.454 632.346 259.382C635.232 267.006 638.885 274.306 643.25 281.171C647.266 287.636 651.669 287.194 655.545 280.481C660.013 272.775 659.536 264.287 660.105 256.049C660.559 250.249 661.631 244.357 665.768 240.088C674.043 231.511 683.16 223.781 692.977 217.021C699.26 213.031 705.804 209.475 712.562 206.378C721.25 202.017 730.495 199.33 739.555 196.024C741.007 195.508 742.137 196.307 743.371 196.992C751.813 201.666 760.252 206.382 770.227 207.327C773.762 207.662 775.434 206.245 775.006 202.765C774.813 201.268 774.374 199.819 773.706 198.475C769.848 190.678 765.23 183.289 759.919 176.412C747.842 161.359 733.495 148.274 717.372 137.608C712.848 134.636 708.373 132.91 702.933 135.912C699.187 137.979 695.137 139.455 691.278 141.281C672.971 150.115 655.277 159.928 641.265 173.084Z" fill="#383536"></path> <path d="M662.614 176.873C666.162 174.861 669.993 172.637 673.891 170.533C675.194 169.828 676.823 168.912 677.853 170.746C678.056 171.113 678.179 171.519 678.214 171.939C678.249 172.359 678.194 172.784 678.055 173.186C677.915 173.588 677.693 173.958 677.404 174.273C677.114 174.587 676.762 174.839 676.372 175.012C671.904 177.162 667.578 179.599 663.42 182.31C663.153 182.484 662.849 182.594 662.534 182.632C662.219 182.67 661.901 182.634 661.606 182.528C661.31 182.422 661.045 182.247 660.831 182.019C660.618 181.791 660.462 181.515 660.375 181.214C659.465 179.192 661.356 178.362 662.614 176.873Z" fill="#383536"></path> <path d="M670.64 183.464C672.138 182.365 673.696 181.351 675.308 180.429C676.42 179.855 677.964 178.914 678.933 180.542C679.695 181.872 679.033 183.129 677.769 184.061C675.794 185.508 673.849 186.989 671.874 188.437C670.623 189.337 669.087 190.149 667.824 188.744C666.412 187.172 667.828 186.044 668.94 184.988C669.34 184.608 669.761 184.251 670.64 183.464Z" fill="#383536"></path> <path d="M419.839 355.174C421.453 353.048 420.523 351.125 419.462 349.09C418.4 347.056 420.959 345.837 421.657 344.154C428.174 328.57 439.844 318.829 455.785 313.635C463.486 311.132 471.527 311.177 479.273 309.343C482.418 308.59 485.863 308.579 488.108 305.571C488.949 304.441 490.442 304.645 491.599 304.895C502.658 307.336 513.07 310.657 518.988 321.739C521.527 326.92 523.321 332.434 524.318 338.116C524.407 338.506 524.398 338.911 524.29 339.295C524.183 339.68 523.981 340.031 523.703 340.318C517.137 346.588 512.061 354.139 505.935 360.748C497.634 369.821 487.139 373.715 475.365 375.686C470.92 376.407 466.522 377.394 462.195 378.639C460.712 378.977 459.32 379.636 458.119 380.569C456.918 381.503 455.936 382.689 455.244 384.043C453.001 389.007 448.634 391.949 444.878 395.495C444.182 396.269 443.22 396.753 442.183 396.849C441.146 396.946 440.112 396.648 439.285 396.016C437.183 394.51 439.519 393.175 440.019 391.848C441.534 387.882 443.765 384.176 444.039 379.806C444.166 379.194 444.132 378.559 443.937 377.965C443.743 377.371 443.397 376.838 442.932 376.419C441.463 375.352 441.227 377.206 440.346 377.561C439.205 377.981 437.951 377.985 436.807 377.573C435.663 377.16 434.7 376.358 434.09 375.307C430.582 370.31 425.808 366.485 422.217 361.651C420.95 359.697 420.138 357.484 419.839 355.174V355.174Z" fill="white"></path> <path d="M524.726 335.481C524.061 343.808 520.478 350.577 515.055 357.065C505.895 368.026 494.147 374.457 481.181 379.3C475.191 381.547 468.928 381.78 462.553 382.159C461.761 382.187 460.989 382.41 460.304 382.808C459.619 383.205 459.042 383.765 458.626 384.439C452.657 392.332 444.895 398.693 435.98 402.995C434.273 403.828 432.096 405.003 430.694 403.105C429.293 401.206 431.189 399.199 432.451 397.815C436.244 393.861 439.095 389.101 440.789 383.89C442.191 379.404 441.985 379.258 437.472 378.705C433.022 378.134 428.837 376.27 425.436 373.345C422.034 370.42 419.566 366.562 418.336 362.25C415.69 353.652 417.665 345.87 421.88 338.235C431.251 321.277 445.795 311.06 464.04 305.924C477.213 302.212 490.604 301.407 503.928 305.77C509.151 307.251 513.645 310.602 516.553 315.183C518.917 318.945 522.032 322.225 523.629 326.498C524.619 329.383 524.992 332.443 524.726 335.481V335.481ZM441.788 393.687C446.964 390.63 451.887 387.486 454.233 382.587C456.579 377.688 458.495 374.559 464.35 376.978C464.991 377.234 465.88 376.713 466.765 376.601C479.985 374.815 492.495 369.562 503.024 361.375C509.937 356.152 516.303 350.282 518.995 341.743C521.454 334.014 520.677 326.35 515.069 320.151C505.098 309.084 492.081 308.011 478.499 310.354C465.655 312.585 453.487 317.709 442.919 325.338C436.066 330.246 429.215 335.093 425.413 343.338C420.774 353.305 424.157 371.127 438.438 372.106C449.467 372.862 446.584 374.203 445.267 382.515C445.262 382.637 445.134 382.767 445.129 382.888C444.901 386.594 442.141 389.563 441.788 393.687Z" fill="#383536"></path> <path d="M460.829 344.423C461.006 340.503 465.574 335.796 469.069 336.014C471.841 336.139 475.107 340.094 474.973 343.045C474.809 346.693 469.027 352.407 465.664 352.27C462.923 352.146 460.689 348.527 460.829 344.423Z" fill="#FBB900"></path> <path d="M489.672 343.875C486.445 344.078 486.005 341.055 485.924 338.155C485.796 333.599 489.904 328.658 493.216 328.899C496.245 329.036 500.014 333.286 499.879 336.268C499.723 339.734 494.491 344.017 489.672 343.875Z" fill="#FBB900"></path> <path d="M451.134 349.762C450.573 354.787 447.416 358.148 443.641 357.735C442.152 357.538 440.783 356.812 439.786 355.689C438.788 354.566 438.229 353.121 438.212 351.62C438.583 347.436 442.408 343.377 445.669 343.752C449.552 344.125 451.516 346.337 451.134 349.762Z" fill="#FBB900"></path> <path d="M1246.09 684.489C1248.48 682.402 1251.28 683.356 1253.56 682.287C1259.44 679.606 1264.51 675.437 1268.29 670.193C1272.69 663.975 1278.37 662.747 1285 663.474C1288.53 663.863 1291.42 662.928 1294.75 661.709C1307.02 657.134 1316.74 648.784 1327.4 641.755C1334.23 637.247 1341.61 633.549 1348.83 629.626C1354.87 626.343 1360.74 622.779 1366.43 618.933C1371.91 615.228 1378.15 613.154 1384.08 610.414C1393 606.504 1401.66 601.997 1409.98 596.927C1411.01 600.082 1411.9 602.424 1408.03 604.644C1394.36 612.653 1381.57 621.996 1367.93 630.049C1357.67 636.056 1347.1 641.359 1337.33 648.135C1328.93 653.938 1320.57 659.787 1312.14 665.519C1309.36 667.537 1306.41 669.301 1303.32 670.791C1299 672.569 1295.48 675.878 1293.45 680.086C1291.45 684.13 1287.68 685.795 1283.67 686.75C1278.62 687.952 1273.49 688.886 1268.33 689.6C1264.5 690.231 1260.57 689.639 1257.09 687.908C1253.79 686.178 1249.95 685.889 1246.09 684.489Z" fill="white"></path> <path d="M1241.98 684.119C1244.59 683.092 1247.45 683.521 1249.94 682.412C1256.7 679.394 1262.61 674.744 1267.13 668.879C1272.2 662.559 1278.04 660.452 1285.89 662.706C1288.63 663.495 1290.84 662.559 1293.03 661.238C1301.97 655.858 1310.85 650.248 1319.9 644.968C1324.47 642.301 1329.12 639.818 1333.47 636.797C1346.15 627.991 1359.98 621.268 1373.62 614.192C1381.08 610.327 1388.4 606.202 1395.88 602.351C1399.99 600.215 1404.26 598.381 1408.49 596.514C1410.03 595.841 1411.57 595.901 1412.49 597.67C1413.4 599.439 1412.54 600.652 1411.32 601.764C1406.94 605.743 1402.11 609.191 1396.92 612.038C1389.71 616.141 1382.76 620.688 1376.12 625.654C1367.12 632.14 1357.5 637.596 1348.2 643.595C1344.12 646.231 1340.15 649.042 1336.14 651.82C1325.88 659.138 1315.14 665.76 1303.99 671.643C1302.15 672.594 1300.38 673.725 1298.5 674.64C1297.54 675.023 1296.69 675.644 1296.04 676.444C1295.38 677.245 1294.94 678.198 1294.75 679.216C1293.55 684.838 1288.73 686.777 1284.1 688.386C1272.22 692.539 1260.37 690.864 1248.65 687.42C1246.29 686.762 1243.42 687.059 1241.98 684.119ZM1254.67 684.816C1257.84 685.77 1261.12 686.315 1264.44 686.439C1272.23 687.007 1279.8 686.526 1286.8 682.359C1290.89 679.915 1292.38 674.905 1289.62 671.383C1285.75 666.294 1276.54 666.052 1272.01 670.651C1266.92 675.795 1262.14 681.369 1254.67 684.816V684.816ZM1399.07 605.805L1398.61 605.014C1395.48 606.771 1392.38 608.662 1389.2 610.281C1381.64 614.186 1373.79 617.58 1366.73 622.311C1357.47 628.509 1347.48 633.383 1338.07 639.268C1332 643.081 1325.38 646.018 1319.82 650.685C1318.95 651.43 1317.7 651.756 1318.82 653.462C1320.35 655.781 1322.35 656.379 1324.39 654.369C1327.3 651.516 1330.78 649.515 1334.13 647.281C1339.79 643.323 1345.67 639.687 1351.74 636.391C1362.38 630.88 1371.79 623.525 1381.73 616.937C1387.45 613.191 1393.29 609.536 1399.07 605.805V605.805ZM1313.99 654.82C1313.54 654.961 1313.11 655.146 1312.69 655.372C1306.5 659.602 1300.1 663.509 1293.51 667.078C1291.56 668.143 1293.13 669.05 1293.52 669.987C1294.07 671.379 1294.92 671.797 1296.33 670.87C1302.33 666.9 1308.47 663.029 1314.55 659.118C1315.19 658.707 1315.99 658.336 1315.54 657.358C1315.09 656.38 1314.56 655.699 1313.99 654.82V654.82Z" fill="#383536"></path> <path d="M1308.29 509.854C1319.49 511.5 1330.46 514.419 1340.99 518.554C1346.24 520.793 1350.42 524.966 1352.68 530.21C1359.86 544.449 1361.74 560.787 1357.97 576.294C1355.4 587.711 1349.74 598.203 1341.61 606.62C1338.23 610.094 1333.21 610.924 1328.97 612.995C1327.15 613.825 1326.22 612.508 1325.79 610.879C1324.79 607.279 1324.53 603.512 1325.02 599.807C1325.47 597.314 1325.4 594.756 1324.82 592.291C1324.45 590.593 1323.59 589.04 1322.35 587.821C1321.11 586.603 1319.54 585.771 1317.84 585.427C1315.82 585.118 1313.76 585.387 1311.9 586.203C1310.03 587.019 1308.43 588.348 1307.29 590.036C1305.22 592.772 1303.53 595.775 1302.27 598.964C1299.1 607.163 1295.07 615.001 1290.24 622.344C1285.95 629.047 1283.29 636.59 1277.97 642.86C1270.69 651.454 1262.39 656.978 1251.02 656.918C1242.69 656.877 1234.37 656.771 1226.05 655.998C1217.73 655.225 1212.07 649.414 1206.8 643.472C1205.62 642.128 1204.8 640.495 1203.58 639.194C1192.66 627.492 1192.45 613.48 1195.22 599.011C1199.06 578.855 1205.93 559.92 1219.06 543.764C1222.38 539.359 1226.08 535.254 1230.11 531.497C1233.17 528.866 1237.47 527.642 1240.98 525.558C1251.17 519.665 1261.8 514.566 1272.78 510.307C1280.73 507.261 1289.36 506.436 1297.74 507.918C1301.27 508.543 1304.78 509.232 1308.29 509.854ZM1307.61 568.705C1318.11 569.965 1326.75 564.282 1331.51 556.244C1333.64 552.682 1330.62 546.068 1326.87 545.922C1318.15 545.444 1309.94 547.313 1303.29 553.297C1300.56 555.734 1298.27 558.635 1299.22 562.593C1300.3 566.926 1304.4 567.435 1307.61 568.705V568.705Z" fill="white"></path> <path d="M1361.2 568.771C1358.04 583.621 1353.88 598.025 1342.35 608.979C1339.65 611.36 1336.54 613.238 1333.18 614.523C1327.74 616.909 1323.15 611.857 1323.79 604.484C1324.26 598.89 1324.2 593.502 1320.28 588.789C1317.95 586.013 1315.83 586.174 1313.46 588.384C1311.63 590.139 1310.15 592.232 1309.11 594.546C1301.65 610.126 1294.28 625.804 1282.98 639.127C1274.63 648.954 1263.66 656.21 1251.36 660.055C1244.47 662.285 1237.27 664.693 1230.46 661.778C1220.44 657.776 1211.44 651.605 1204.09 643.705C1194.01 632.455 1190.77 619.119 1191.58 604.505C1192.54 587.038 1196.85 570.467 1206.89 555.982C1209.99 551.507 1212.46 546.752 1215.96 542.598C1219.86 538.269 1224.1 534.26 1228.64 530.609C1233.16 526.704 1237.98 523.173 1243.07 520.05C1255 512.725 1268.39 508.089 1282.29 506.465C1297.85 504.583 1313.04 505.533 1327.58 511.142C1341.49 516.471 1353.64 524.57 1359.66 539.086C1362.93 546.952 1362.66 555.446 1361.96 563.847C1361.89 565.543 1361.48 567.163 1361.2 568.771ZM1356.3 569.795C1356.53 568.48 1356.77 567.148 1357 565.833C1358.2 556.38 1358.31 547.003 1353.8 538.298C1348.69 528.416 1339.96 522.564 1330.14 518.027C1320.45 513.735 1310.04 511.321 1299.45 510.913C1287.56 510.405 1275.66 511.922 1264.27 515.399C1252.14 518.81 1242.12 526.162 1232.38 533.851C1222.32 541.974 1214.06 552.116 1208.14 563.624C1202.59 574.047 1199.72 585.213 1197.87 596.76C1194.42 618.342 1199.8 636.263 1218.51 649.143C1229.11 656.447 1239.99 658.81 1252.18 653.434C1265.58 647.55 1276.93 639.395 1285.11 626.943C1291.63 617.494 1296.84 607.204 1300.59 596.353C1302.52 590.364 1305.71 585.318 1311.8 582.579C1321.08 578.394 1329.63 584.23 1329.07 594.516C1328.92 597.353 1328.7 600.179 1328.63 603.014C1328.58 605.367 1327.99 608.428 1330.13 609.677C1332.61 611.123 1334.7 608.395 1336.87 607.237C1337.22 606.962 1337.55 606.649 1337.84 606.303C1348.53 596.406 1353.34 583.557 1356.3 569.795Z" fill="#383536"></path> <path d="M1327.59 543.624C1331.93 544.072 1333.91 546.637 1334.71 550.684C1336.53 560.693 1330.14 568.892 1319.82 569.903C1316.34 570.249 1313 571.18 1309.58 571.756C1307.39 572.118 1305.14 571.958 1303.02 571.289C1300.91 570.619 1298.98 569.46 1297.4 567.908C1293.32 564.176 1294.12 557.471 1299.13 552.594C1307.05 544.904 1316.91 542.83 1327.59 543.624ZM1329.35 556.309C1330.33 550.77 1329.5 549.574 1323.76 549.167C1316.07 548.599 1310.07 552.707 1304.26 556.682C1300.85 559.018 1302.01 562.791 1306.37 564.071C1309.25 564.942 1312.25 565.36 1315.26 565.308C1323.22 565.13 1328.36 561.646 1329.35 556.309Z" fill="#383536"></path> <path d="M1253.11 624.645C1252.44 628.404 1247.9 630.935 1244.6 629.03C1242.48 627.824 1241.47 627.833 1240.73 630.224C1240.06 631.944 1238.76 633.338 1237.1 634.119C1236.25 634.538 1235.48 635.132 1234.86 635.864C1234.24 636.596 1233.77 637.45 1233.49 638.372C1232.17 642.151 1228.47 643.171 1225.13 641.038C1221.59 638.541 1218.86 635.029 1217.31 630.949C1214.72 625.475 1213.62 619.397 1214.11 613.333C1214.59 608.474 1218.74 605.518 1222.97 607.505C1226.88 609.366 1236.34 614.664 1239.25 619.21C1239.42 619.494 1236.26 612.584 1236.71 612.361C1241.16 610.136 1244.27 612.007 1247.26 615.364C1248.56 616.981 1250.03 618.45 1251.64 619.746C1252.32 620.333 1252.82 621.106 1253.08 621.974C1253.34 622.843 1253.35 623.77 1253.11 624.645V624.645Z" fill="#FBB900"></path> <path d="M1237.98 569.236C1237.48 570.148 1236.74 571.459 1236.05 572.794C1234.85 575.04 1234.02 577.079 1235.35 579.876C1236.69 582.674 1232.37 592.795 1229.39 594.506C1228.37 595.155 1227.15 595.428 1225.95 595.278C1224.75 595.127 1223.65 594.562 1222.82 593.68C1220.19 590.399 1216.7 590.24 1213.21 589.756C1208.81 589.147 1207.12 587.118 1207.21 582.401C1207.19 580.606 1207.86 578.87 1209.09 577.564C1210.31 576.258 1212 575.485 1213.78 575.409C1216.54 575.356 1218.07 574.763 1218.41 571.38C1218.71 568.416 1219.94 565.326 1224.09 565.096C1225.3 565.038 1226.41 563.336 1227.59 562.427C1229.66 560.809 1231.46 558.278 1234.51 559.329C1236.69 560.105 1238.67 565.746 1237.98 569.236Z" fill="#E1DDCD"></path> <path d="M1247.2 547.501C1248.06 543.892 1249.18 541.318 1253.01 539.797C1257.55 538.014 1260.57 533.695 1265.2 531.593C1269.35 529.709 1272.97 526.94 1277.05 524.758C1277.81 524.347 1278.69 524.205 1279.55 524.357C1280.41 524.509 1281.18 524.945 1281.75 525.591C1282.33 526.113 1282.69 526.825 1282.76 527.587C1282.83 528.349 1282.6 529.104 1282.11 529.703C1278.41 535.11 1277.41 541.702 1273.98 547.225C1272.91 548.881 1272.44 550.839 1272.63 552.797C1272.82 554.083 1272.53 555.389 1271.82 556.477C1271.1 557.564 1270 558.36 1268.71 558.721C1267.48 559.235 1266.09 559.283 1264.82 558.855C1263.54 558.427 1262.47 557.553 1261.81 556.406C1260.49 554.105 1258.95 553.464 1256.62 555.166C1255.6 555.783 1254.49 556.243 1253.32 556.53C1252.52 556.843 1251.65 556.935 1250.8 556.795C1249.95 556.655 1249.15 556.289 1248.5 555.738C1247.85 555.186 1247.36 554.471 1247.1 553.673C1246.84 552.874 1246.81 552.023 1247.02 551.215C1247.16 549.983 1247.22 548.742 1247.2 547.501V547.501Z" fill="#65697C"></path> <path d="M1486.63 382.836C1472.46 385.099 1457.64 384.555 1442.84 385.082C1440.15 385.171 1439.21 384.357 1438.6 381.944C1433.96 363.796 1425.93 346.621 1422.87 327.989C1422 322.869 1420.45 317.852 1419.19 312.8C1418.58 310.346 1418.83 308.63 1421.71 307.506C1428.21 305.045 1434.57 302.241 1440.94 299.457C1442.24 298.88 1443.72 297.881 1444.87 298.608C1450.46 302.152 1454.57 298.69 1458.45 295.657C1463.4 291.8 1466.95 286.574 1466.55 280.092C1466.28 275.912 1468 274.611 1471.47 273.838C1480.12 271.855 1488.72 269.669 1497.35 267.668C1497.94 267.436 1498.58 267.325 1499.21 267.341C1499.85 267.356 1500.47 267.498 1501.05 267.758C1501.64 268.018 1502.16 268.391 1502.59 268.855C1503.03 269.319 1503.37 269.864 1503.59 270.46C1505.97 274.872 1509.13 280.224 1514.51 279.811C1520.34 279.367 1525.85 281.552 1532.03 279.823C1538.86 277.827 1546.54 278.762 1553.84 278.352C1556.55 278.197 1556.86 280.266 1557.4 282.139C1563.83 303.233 1569.26 324.573 1574.43 346.008C1575.01 348.029 1574.82 350.191 1573.91 352.085C1573 353.979 1571.43 355.474 1569.49 356.288C1548.96 365.251 1528.79 375.14 1506.87 380.395C1500.21 381.853 1493.44 382.671 1486.63 382.836V382.836Z" fill="white"></path> <path d="M1477.74 292.593C1474.52 292.978 1472 292.669 1471.72 290.344C1471.37 287.416 1471.05 283.578 1474.8 282.287C1481.32 279.931 1487.98 277.974 1494.73 276.428C1498.84 275.537 1500.01 280.01 1501.27 282.618C1502.8 285.847 1499.02 285.457 1497.48 286.126C1494.11 287.491 1490.66 288.663 1487.15 289.636L1477.74 292.593Z" fill="#65697C"></path> <path d="M1530.5 332.472C1530.92 347.076 1523.41 364.042 1506.22 366.151C1490.71 368.006 1467.91 354.149 1466.86 341.769C1465.33 323.627 1473.34 307.39 1493.72 304.926C1514.61 302.373 1527.85 312.209 1530.5 332.472ZM1505.34 337.329C1504.41 344.727 1509.6 345.601 1514.41 344.836C1520.98 343.806 1519.73 337.756 1519.83 333.15C1519.96 328.051 1517.73 325.408 1511.97 325.933C1503.81 326.828 1506.15 332.937 1505.34 337.329Z" fill="#65697C"></path> <path d="M1498.17 383.963C1489.09 386.987 1479.63 388.7 1470.06 389.051C1461.7 389.65 1453.65 391.709 1445.26 391.554C1440.55 391.485 1437.3 389.873 1435.66 385.203C1429.67 368.142 1423.15 351.25 1420.34 333.242C1419.55 328.091 1418.3 322.954 1417.04 317.944C1415.27 310.889 1416.6 307.739 1423.42 304.859C1434.13 300.314 1444.95 295.966 1455.69 291.48C1457.05 290.917 1458.89 290.781 1458.95 288.626C1459.29 277.57 1466.43 272.987 1476.06 270.994C1482 269.736 1487.41 266.835 1493.54 265.975C1499.36 265.279 1503.99 266.473 1507.37 271.061C1510.44 275.202 1513.63 277.011 1519.21 276.091C1528.45 274.585 1537.97 274.311 1547.28 273.514C1555.88 272.801 1557.85 273.766 1560.33 282C1566.08 300.563 1571.79 319.153 1575.75 338.226C1576.51 342.872 1576.54 347.609 1575.83 352.264C1575.22 358.025 1570.28 359.921 1565.57 361.39C1553.27 365.22 1542.7 373.224 1529.61 375.822C1536.49 374.514 1539.11 379.236 1541.56 383.682C1547.51 394.449 1552.63 405.674 1559.1 416.169C1566.06 427.447 1572.67 438.978 1579.91 450.076C1589.92 465.498 1600.44 480.605 1610.6 495.882C1615.18 502.749 1614.71 505.501 1608.68 509.192C1601.97 513.302 1596.88 512.583 1593.37 505.989C1587.68 495.254 1580.82 485.185 1575.34 474.298C1567.47 458.662 1558.53 443.576 1551.06 427.724C1546.7 418.451 1541.63 409.517 1537.37 400.212C1535.33 395.737 1532.72 394.849 1528.47 396.305C1525.76 397.495 1522.88 398.251 1519.94 398.546C1516.69 398.64 1518.04 401.132 1518.55 402.925C1521.83 413.907 1524.87 425.001 1528.54 435.873C1536.59 459.702 1544.8 483.51 1553.4 507.147C1555.1 511.83 1556.78 516.578 1558.7 521.257C1561.2 527.402 1559.12 531.484 1552.68 533.118C1549.44 533.794 1546.15 534.244 1542.85 534.463C1542.04 534.667 1541.19 534.697 1540.37 534.549C1539.54 534.402 1538.76 534.08 1538.07 533.607C1537.38 533.133 1536.8 532.518 1536.37 531.802C1535.94 531.087 1535.66 530.287 1535.56 529.457C1532.85 517.417 1529.67 505.456 1527.37 493.325C1523.29 471.992 1518.06 450.943 1512.75 429.905C1510.75 422.076 1507.92 414.306 1507.92 406.029C1507.94 403.52 1506.45 403.067 1504.47 403.619C1501.13 404.587 1497.8 405.701 1494.49 406.75C1492.85 407.283 1492.59 408.452 1492.78 410.03C1493.94 438.494 1493.45 467.029 1495.48 495.475C1495.96 502.494 1497.28 509.434 1497.99 516.426C1498.82 524.752 1496.8 532.956 1496.76 541.259C1496.74 543.22 1495 544.186 1493.12 544.495C1490.22 545.075 1487.27 545.427 1484.31 545.549C1475.56 545.501 1474.24 543.509 1474.83 534.867C1475.97 518.217 1476.75 501.548 1477.51 484.88C1478.28 467.791 1481.39 450.884 1481.6 433.841C1481.77 420.656 1484.22 407.536 1482.94 394.314C1482.55 391.012 1484.98 390.215 1487.31 389.411C1491.05 388.12 1494.85 386.929 1498.63 385.698L1498.17 383.963ZM1483.87 379.543C1490.26 380.127 1496.58 377.055 1503.21 375.736C1513.27 373.71 1522.84 369.828 1532.72 367.172C1542.61 364.515 1551.74 358.579 1561.86 355.999C1567.52 354.501 1569.68 350.852 1568.81 344.848C1565.47 324.626 1558.62 305.289 1553.51 285.595C1553.39 284.784 1553.1 284.007 1552.67 283.309C1552.24 282.612 1551.67 282.009 1551 281.536C1550.33 281.063 1549.57 280.731 1548.76 280.559C1547.96 280.387 1547.13 280.38 1546.33 280.536C1535.73 280.95 1525.17 282.023 1514.71 283.748C1512.65 284.121 1510.23 284.726 1508.85 282.7C1506.78 279.683 1503.73 277.395 1501.99 274.338C1501.49 273.142 1500.56 272.172 1499.39 271.616C1498.22 271.06 1496.88 270.957 1495.64 271.327C1488.49 272.866 1481.46 274.889 1474.59 277.383C1468.28 279.464 1466.04 283.607 1465.5 289.464C1465.46 291.379 1464.75 293.219 1463.51 294.679C1462.27 296.138 1460.57 297.128 1458.69 297.483C1448.47 300.873 1438.44 304.814 1428.65 309.289C1426.39 310.255 1424.86 311.069 1425.49 314.216C1429.96 336.366 1435.56 358.213 1442.1 379.841C1443.19 383.46 1444.79 384.68 1448.77 384.309C1460.36 383.156 1471.79 381.135 1483.87 379.543V379.543Z" fill="#383536"></path> <path d="M1533.94 330.102C1536.37 352.643 1523.86 366.755 1502.23 369.342C1482.98 371.644 1466.09 359.953 1462.87 338.643C1460.6 323.56 1470.75 302.105 1499.51 299.656C1511.8 298.628 1532.27 308.839 1533.94 330.102ZM1496.94 305.671C1476.13 307.886 1466.47 323.469 1468.02 336.195C1470.01 352.806 1486.4 366.412 1501.42 364.215C1520.71 361.424 1531.17 348.59 1528.87 330.56C1526.86 314.12 1513.19 303.538 1496.94 305.671V305.671Z" fill="#383536"></path> <path d="M1535.94 297.387C1535.23 292.774 1538.23 287.339 1540.82 286.967C1543.41 286.594 1547.42 291.042 1547.67 294.32C1547.84 295.172 1547.84 296.051 1547.66 296.901C1547.47 297.751 1547.12 298.555 1546.61 299.259C1546.1 299.964 1545.44 300.555 1544.69 300.995C1543.94 301.434 1543.11 301.713 1542.24 301.814C1541.53 302.046 1540.78 302.109 1540.04 301.998C1539.3 301.888 1538.59 301.607 1537.98 301.177C1537.37 300.747 1536.87 300.181 1536.51 299.523C1536.16 298.865 1535.96 298.134 1535.94 297.387V297.387Z" fill="#FBB900"></path> <path d="M1552.85 311.158C1553.13 314.726 1552.59 317.782 1548.19 318.35C1544.83 318.753 1540.46 315.716 1540.95 312.603C1541.44 309.491 1541.2 305.622 1545.81 305.197C1546.67 305.092 1547.54 305.165 1548.37 305.413C1549.2 305.662 1549.98 306.079 1550.64 306.639C1551.3 307.199 1551.84 307.889 1552.22 308.667C1552.6 309.445 1552.81 310.293 1552.85 311.158V311.158Z" fill="#FBB900"></path> <path d="M1444.68 313.203C1445.25 313.097 1445.84 313.107 1446.41 313.231C1446.98 313.356 1447.52 313.592 1448 313.927C1448.48 314.262 1448.88 314.689 1449.19 315.182C1449.5 315.676 1449.71 316.226 1449.81 316.802C1450.49 319.796 1446.4 323.528 1442.47 323.998C1438.55 324.467 1436.94 322.848 1436.52 319.318C1436.09 315.788 1438.57 313.807 1444.68 313.203Z" fill="#FBB900"></path> </g> <defs> <clipPath id="clip0_804_341"> <rect width="1680" height="900" fill="white"></rect> </clipPath> </defs> </svg> 