<?xml version="1.0" encoding="UTF-8"?> <svg xmlns="http://www.w3.org/2000/svg" width="150" height="43" viewBox="0 0 250 43" fill="none"> <g clip-path="url(#clip0_202_3)"> <rect width="250" height="43" fill="white"></rect> <g clip-path="url(#clip1_202_3)"> <path d="M44.9531 39.6749C44.3548 39.3416 43.8603 38.8498 43.524 38.2537C43.1814 37.6235 43.002 36.9178 43.002 36.2008C43.002 35.4838 43.1814 34.7781 43.524 34.1479C43.8598 33.5538 44.3547 33.0648 44.9531 32.7357C45.5818 32.403 46.2824 32.2291 46.9939 32.2291C47.7053 32.2291 48.406 32.403 49.0346 32.7357C49.632 33.0641 50.1251 33.5534 50.4578 34.1479C50.7965 34.7793 50.9737 35.4845 50.9737 36.2008C50.9737 36.9171 50.7965 37.6223 50.4578 38.2537C50.1246 38.8501 49.6319 39.3422 49.0346 39.6749C48.4077 40.0131 47.7064 40.1902 46.9939 40.1902C46.2813 40.1902 45.58 40.0131 44.9531 39.6749ZM48.4916 38.8734C48.933 38.6203 49.2923 38.2459 49.5269 37.7948C49.7723 37.2997 49.8999 36.7547 49.8999 36.2023C49.8999 35.6499 49.7723 35.1049 49.5269 34.6098C49.2933 34.158 48.9337 33.7834 48.4916 33.5312C48.0337 33.2829 47.5209 33.1529 46.9998 33.1529C46.4788 33.1529 45.966 33.2829 45.5081 33.5312C45.0654 33.7846 44.7042 34.1587 44.4668 34.6098C44.2158 35.1032 44.0849 35.6488 44.0849 36.2023C44.0849 36.7558 44.2158 37.3014 44.4668 37.7948C44.7053 38.2451 45.0662 38.6189 45.5081 38.8734C45.9667 39.1196 46.4792 39.2484 46.9998 39.2484C47.5205 39.2484 48.033 39.1196 48.4916 38.8734V38.8734Z" fill="#383536"></path> <path d="M58.9817 32.9651C59.5452 33.2813 60.0075 33.7503 60.3154 34.3178C60.6332 34.9409 60.7969 35.631 60.7927 36.3303C60.7886 37.0296 60.6167 37.7178 60.2915 38.3371C59.9678 38.9191 59.4844 39.3967 58.8982 39.7136C58.2665 40.0508 57.5586 40.2201 56.8425 40.2053C55.5417 40.2053 54.5333 39.7484 53.8172 38.8347C53.1012 37.921 52.7441 36.6616 52.7461 35.0567C52.7461 33.3802 53.0663 32.0951 53.7068 31.2012C54.3473 30.3074 55.3478 29.6986 56.7082 29.3748L60.2258 28.5703L60.4049 29.5387L57.0961 30.2984C55.9743 30.5467 55.1498 30.9857 54.6228 31.6154C54.0957 32.245 53.8073 33.1746 53.7575 34.4042C54.0602 33.8171 54.5197 33.3252 55.0852 32.983C55.6754 32.6346 56.351 32.4572 57.0364 32.4705C57.717 32.4629 58.3877 32.6334 58.9817 32.9651V32.9651ZM58.3402 38.9479C58.7716 38.6954 59.1232 38.3268 59.3547 37.8842C59.6016 37.4055 59.7266 36.8734 59.7186 36.3349C59.7302 35.8072 59.607 35.2853 59.3606 34.8183C59.1309 34.3889 58.7817 34.035 58.3552 33.7993C57.898 33.5588 57.3891 33.433 56.8723 33.433C56.3556 33.433 55.8467 33.5588 55.3895 33.7993C54.9619 34.0356 54.6109 34.3892 54.3781 34.8183C54.1261 35.2835 53.9996 35.8061 54.0111 36.3349C54.0026 36.8738 54.1287 37.4063 54.3781 37.8842C54.6092 38.3291 54.9634 38.6983 55.3985 38.9479C55.8468 39.2039 56.3559 39.3346 56.8723 39.3263C57.3869 39.335 57.8942 39.2042 58.3402 38.9479V38.9479Z" fill="#383536"></path> <path d="M68.7021 32.7357C69.2929 33.062 69.7784 33.5499 70.1014 34.142C70.428 34.7814 70.5983 35.489 70.5983 36.2068C70.5983 36.9246 70.428 37.6321 70.1014 38.2715C69.7867 38.8579 69.3146 39.3449 68.7379 39.6779C68.1319 40.0215 67.4447 40.1964 66.7479 40.1844C66.143 40.1986 65.5434 40.0678 64.9995 39.803C64.49 39.542 64.0603 39.1489 63.7554 38.6648V43.0089H62.6992V36.2276C62.6836 35.5013 62.8552 34.7831 63.1975 34.142C63.5193 33.5475 64.0049 33.0574 64.5967 32.7297C65.2287 32.3834 65.9406 32.2087 66.6614 32.2232C67.375 32.2108 68.0792 32.3877 68.7021 32.7357V32.7357ZM68.1382 38.8794C68.5817 38.6243 68.943 38.248 69.1795 37.7948C69.4247 37.305 69.5524 36.7648 69.5524 36.2172C69.5524 35.6695 69.4247 35.1294 69.1795 34.6395C68.9425 34.1844 68.5815 33.8053 68.1382 33.5461C67.6793 33.2893 67.1621 33.1544 66.636 33.1544C66.11 33.1544 65.5927 33.2893 65.1338 33.5461C64.6966 33.8017 64.3408 34.1756 64.1075 34.6246C63.8559 35.1146 63.7299 35.6592 63.7405 36.2097C63.7306 36.763 63.8566 37.3103 64.1075 37.8038C64.3374 38.2567 64.6939 38.6334 65.1338 38.8883C65.587 39.1493 66.1024 39.2831 66.6256 39.2756C67.1563 39.2821 67.679 39.1452 68.1382 38.8794Z" fill="#383536"></path> <path d="M79.9977 32.2887V40.1158H78.9833V38.5665C78.6829 39.0768 78.2472 39.4944 77.7243 39.7732C77.1793 40.0564 76.5723 40.1998 75.958 40.1903C75.2597 40.199 74.5714 40.0243 73.962 39.6838C73.3709 39.3537 72.8857 38.863 72.5627 38.2686C72.2291 37.6302 72.0549 36.9208 72.0549 36.2008C72.0549 35.4808 72.2291 34.7714 72.5627 34.133C72.8871 33.5419 73.3722 33.0544 73.962 32.7267C74.5733 32.3917 75.2608 32.2203 75.958 32.2291C76.5552 32.22 77.1457 32.3549 77.6795 32.6224C78.1948 32.8875 78.6296 33.2857 78.9386 33.7755V32.2857L79.9977 32.2887ZM77.5303 38.8734C77.973 38.619 78.3349 38.2452 78.5746 37.7948C78.8238 37.3008 78.9536 36.7554 78.9536 36.2023C78.9536 35.6492 78.8238 35.1037 78.5746 34.6097C78.3363 34.1583 77.9741 33.7842 77.5303 33.5312C77.0761 33.2734 76.561 33.1417 76.0386 33.1498C75.5163 33.1432 75.0016 33.2748 74.5468 33.5312C74.1041 33.7846 73.743 34.1587 73.5055 34.6097C73.2545 35.1032 73.1237 35.6488 73.1237 36.2023C73.1237 36.7557 73.2545 37.3014 73.5055 37.7948C73.744 38.2451 74.105 38.6189 74.5468 38.8734C75.0019 39.1288 75.5166 39.2594 76.0386 39.2518C76.5607 39.261 77.0758 39.1303 77.5303 38.8734V38.8734Z" fill="#383536"></path> <path d="M87.9161 36.7073C88.0651 36.8613 88.1819 37.0433 88.2597 37.2428C88.3376 37.4423 88.375 37.6553 88.3696 37.8693C88.3729 38.3199 88.2056 38.7552 87.9012 39.0879C87.5543 39.4674 87.1157 39.7516 86.6273 39.9132C86.0584 40.1148 85.4586 40.2156 84.855 40.2112C84.289 40.2109 83.7261 40.1275 83.1842 39.9639C82.6666 39.8156 82.1817 39.571 81.7551 39.2428L82.1132 38.4533C82.4909 38.7319 82.9137 38.9435 83.3633 39.079C83.8314 39.2265 84.3194 39.3018 84.8103 39.3024C85.4328 39.3288 86.051 39.1878 86.6004 38.8943C86.8068 38.7911 86.9807 38.633 87.1028 38.4374C87.2249 38.2418 87.2906 38.0164 87.2926 37.7859C87.2954 37.587 87.2442 37.3911 87.1444 37.219C87.0446 37.0469 86.8999 36.9051 86.7257 36.8086C86.2512 36.5532 85.7156 36.4326 85.1773 36.46H83.8257V35.6853H85.1086C85.5997 35.7007 86.0853 35.579 86.5109 35.3338C86.6725 35.2466 86.8076 35.1176 86.9021 34.9604C86.9966 34.8031 87.047 34.6233 87.0479 34.4399C87.0487 34.2371 86.9934 34.0379 86.8881 33.8645C86.7828 33.691 86.6316 33.5499 86.4512 33.4567C85.9686 33.1992 85.4256 33.0757 84.8789 33.0991C84.0049 33.107 83.1458 33.3268 82.3757 33.7397L82.0774 32.9234C82.9713 32.4455 83.9693 32.1948 84.9833 32.1934C85.5333 32.1861 86.0803 32.2738 86.6004 32.4526C87.0346 32.5963 87.4242 32.8498 87.7312 33.1885C87.9995 33.4927 88.1452 33.8856 88.1399 34.2909C88.1427 34.6825 87.9966 35.0605 87.7312 35.3487C87.4296 35.6719 87.0461 35.9077 86.6213 36.031C87.1096 36.1258 87.5596 36.3609 87.9161 36.7073V36.7073Z" fill="#383536"></path> <path d="M91.9618 39.6749C91.3633 39.3408 90.868 38.8492 90.5297 38.2537C90.1889 37.6229 90.0105 36.9175 90.0105 36.2008C90.0105 35.4841 90.1889 34.7787 90.5297 34.1479C90.8674 33.5542 91.3631 33.0655 91.9618 32.7357C92.5905 32.403 93.2911 32.2291 94.0025 32.2291C94.714 32.2291 95.4146 32.403 96.0433 32.7357C96.6407 33.0641 97.1338 33.5534 97.4664 34.1479C97.8034 34.7799 97.9796 35.4849 97.9796 36.2008C97.9796 36.9168 97.8034 37.6217 97.4664 38.2537C97.1333 38.8501 96.6405 39.3422 96.0433 39.6749C95.4164 40.0131 94.7151 40.1902 94.0025 40.1902C93.29 40.1902 92.5887 40.0131 91.9618 39.6749V39.6749ZM95.5003 38.8734C95.9417 38.6203 96.301 38.2459 96.5356 37.7948C96.7809 37.2997 96.9086 36.7547 96.9086 36.2023C96.9086 35.6499 96.7809 35.1049 96.5356 34.6098C96.302 34.158 95.9424 33.7834 95.5003 33.5312C95.0424 33.2829 94.5296 33.1529 94.0085 33.1529C93.4875 33.1529 92.9747 33.2829 92.5167 33.5312C92.073 33.7842 91.7107 34.1583 91.4725 34.6098C91.2233 35.1037 91.0935 35.6492 91.0935 36.2023C91.0935 36.7554 91.2233 37.3008 91.4725 37.7948C91.7122 38.2452 92.0741 38.619 92.5167 38.8734C92.9753 39.1196 93.4879 39.2484 94.0085 39.2484C94.5292 39.2484 95.0417 39.1196 95.5003 38.8734V38.8734Z" fill="#383536"></path> <path d="M106.832 37.9885C106.847 38.2938 106.785 38.598 106.652 38.8733C106.519 39.1486 106.319 39.3863 106.071 39.5646C105.562 39.9222 104.81 40.1059 103.815 40.1159H100.235V32.2887H103.693C104.426 32.2494 105.153 32.4311 105.782 32.8101C106.027 32.9714 106.226 33.1935 106.359 33.4546C106.492 33.7158 106.556 34.007 106.542 34.2999C106.553 34.6938 106.429 35.0797 106.19 35.3934C105.939 35.7096 105.599 35.9449 105.215 36.0697C106.301 36.317 106.832 36.9546 106.832 37.9885ZM101.273 35.7688H103.627C104.116 35.7995 104.602 35.6811 105.021 35.4291C105.179 35.3169 105.306 35.1666 105.391 34.9921C105.475 34.8176 105.514 34.6246 105.504 34.431C105.515 34.2394 105.477 34.0481 105.392 33.8758C105.307 33.7035 105.179 33.556 105.021 33.4478C104.599 33.2044 104.114 33.0904 103.627 33.12H101.273V35.7688ZM105.28 38.9538C105.448 38.8431 105.583 38.6899 105.673 38.5098C105.762 38.3297 105.801 38.1293 105.787 37.9289C105.803 37.7313 105.769 37.533 105.688 37.352C105.607 37.1709 105.482 37.0128 105.325 36.892C104.884 36.6364 104.375 36.5201 103.866 36.5583H101.273V39.2816H103.762C104.289 39.3157 104.815 39.2022 105.28 38.9538V38.9538Z" fill="#383536"></path> <path d="M116.427 32.2887V40.1158H115.412V38.5665C115.112 39.0768 114.676 39.4944 114.153 39.7732C113.608 40.0564 113.001 40.1998 112.387 40.1903C111.689 40.199 111 40.0243 110.391 39.6838C109.8 39.3537 109.315 38.863 108.992 38.2686C108.658 37.6302 108.484 36.9208 108.484 36.2008C108.484 35.4808 108.658 34.7714 108.992 34.133C109.316 33.5419 109.801 33.0544 110.391 32.7267C111.002 32.3917 111.69 32.2203 112.387 32.2291C112.984 32.22 113.575 32.3549 114.108 32.6224C114.624 32.8875 115.059 33.2857 115.368 33.7755V32.2857L116.427 32.2887ZM113.959 38.8734C114.402 38.619 114.764 38.2452 115.004 37.7948C115.253 37.3008 115.383 36.7554 115.383 36.2023C115.383 35.6492 115.253 35.1037 115.004 34.6097C114.763 34.1638 114.401 33.795 113.959 33.5461C113.505 33.2882 112.99 33.1566 112.468 33.1647C111.945 33.1581 111.431 33.2897 110.976 33.5461C110.533 33.7995 110.172 34.1736 109.934 34.6246C109.683 35.1181 109.553 35.6637 109.553 36.2172C109.553 36.7706 109.683 37.3163 109.934 37.8097C110.173 38.26 110.534 38.6338 110.976 38.8883C111.431 39.1437 111.946 39.2743 112.468 39.2667C112.991 39.2713 113.506 39.1355 113.959 38.8734V38.8734Z" fill="#383536"></path> <path d="M131.497 33.0753C132.058 33.6414 132.338 34.4747 132.338 35.5751V40.1158H131.282V35.6794C131.282 34.867 131.083 34.2472 130.685 33.8202C130.47 33.6006 130.211 33.4297 129.924 33.3192C129.637 33.2087 129.33 33.1611 129.023 33.1796C128.668 33.1614 128.312 33.2192 127.981 33.3492C127.65 33.4792 127.35 33.6784 127.102 33.9334C126.607 34.5117 126.356 35.2597 126.404 36.019V40.1278H125.345V35.6794C125.345 34.867 125.146 34.2472 124.748 33.8202C124.53 33.5999 124.268 33.4287 123.979 33.3182C123.69 33.2077 123.38 33.1605 123.071 33.1796C122.717 33.1626 122.362 33.2211 122.032 33.351C121.702 33.481 121.403 33.6795 121.156 33.9334C120.655 34.5092 120.401 35.2581 120.449 36.019V40.1278H119.389V32.2887H120.404V33.7159C120.676 33.244 121.081 32.8619 121.567 32.6165C122.098 32.3494 122.686 32.2164 123.28 32.2291C123.88 32.213 124.474 32.3592 124.998 32.6522C125.484 32.9344 125.863 33.3677 126.079 33.8857C126.366 33.3689 126.798 32.9473 127.323 32.6731C127.893 32.3736 128.531 32.2229 129.175 32.2351C129.599 32.2103 130.024 32.272 130.423 32.4165C130.822 32.5609 131.187 32.7851 131.497 33.0753V33.0753Z" fill="#383536"></path> <path d="M139.779 38.9926C140.186 38.8232 140.547 38.5597 140.832 38.2239L141.429 38.9092C141.081 39.3266 140.636 39.6537 140.134 39.8626C139.514 40.1072 138.849 40.217 138.183 40.1847C137.518 40.1523 136.867 39.9785 136.273 39.6749C135.663 39.3469 135.158 38.8545 134.814 38.2537C134.46 37.6281 134.28 36.9193 134.292 36.2008C134.28 35.4849 134.453 34.7779 134.794 34.1479C135.111 33.5574 135.589 33.0681 136.172 32.7357C136.78 32.391 137.469 32.216 138.168 32.2291C138.827 32.2195 139.476 32.384 140.051 32.7059C140.608 33.0191 141.072 33.4759 141.393 34.0288C141.731 34.618 141.913 35.2835 141.921 35.9624L135.486 37.2138C135.665 37.8189 136.046 38.3446 136.566 38.7036C137.118 39.074 137.772 39.2635 138.436 39.2458C138.896 39.2521 139.353 39.166 139.779 38.9926V38.9926ZM136.697 33.5163C136.268 33.7672 135.916 34.1324 135.683 34.571C135.434 35.0512 135.309 35.5857 135.319 36.1263C135.312 36.2355 135.312 36.3449 135.319 36.4541L140.847 35.3844C140.747 34.7582 140.43 34.1869 139.952 33.7695C139.455 33.3425 138.817 33.1162 138.162 33.1349C137.648 33.1273 137.142 33.2591 136.697 33.5163Z" fill="#383536"></path> <path d="M150.359 32.2887V40.1158H149.299V33.2243H145.54L145.436 35.161C145.413 36.4299 145.223 37.6902 144.869 38.9092C144.571 39.7831 144.039 40.2201 143.276 40.2201C143.018 40.2118 142.763 40.1718 142.515 40.1009L142.601 39.2071C142.724 39.238 142.849 39.2579 142.974 39.2667C143.166 39.2711 143.355 39.2199 143.519 39.1195C143.683 39.0191 143.814 38.8736 143.896 38.7006C144.124 38.2657 144.265 37.7914 144.314 37.3032C144.382 36.7451 144.441 36.0111 144.493 35.1014L144.627 32.3036L150.359 32.2887Z" fill="#383536"></path> <path d="M154.031 39.4753C153.732 39.1859 153.498 38.8354 153.346 38.4478C153.194 38.0601 153.128 37.6443 153.151 37.2287V32.2887H154.21V35.5453C154.5 35.2185 154.866 34.9686 155.276 34.8183C155.758 34.634 156.272 34.543 156.788 34.5502C157.761 34.5502 158.519 34.7984 159.062 35.295C159.333 35.5491 159.546 35.8589 159.686 36.2029C159.826 36.547 159.89 36.9173 159.873 37.2883C159.89 37.6935 159.819 38.0975 159.664 38.4724C159.51 38.8474 159.276 39.1845 158.978 39.4604C158.381 40.0056 157.564 40.2797 156.52 40.2797C155.475 40.2797 154.619 40.0116 154.031 39.4753ZM158.208 38.8645C158.408 38.6611 158.565 38.419 158.667 38.153C158.77 37.887 158.817 37.6029 158.805 37.3181C158.816 37.0507 158.769 36.784 158.666 36.537C158.562 36.2899 158.406 36.0683 158.208 35.888C157.735 35.5054 157.134 35.315 156.526 35.3546C156.036 35.343 155.552 35.4547 155.117 35.6794C154.733 35.8841 154.421 36.2012 154.222 36.5881V37.3032C154.206 37.5961 154.253 37.889 154.36 38.1624C154.466 38.4358 154.63 38.6833 154.84 38.8883C155.314 39.2916 155.925 39.4966 156.547 39.4604C156.847 39.4755 157.148 39.4305 157.432 39.3282C157.715 39.2259 157.975 39.0683 158.196 38.8645H158.208Z" fill="#383536"></path> <path d="M161.929 32.2887H162.985V35.7539H167.917V32.2887H168.976V40.1158H167.917V36.6626H162.985V40.1158H161.929V32.2887Z" fill="#383536"></path> <path d="M172.634 39.4812C172.061 38.9509 171.778 38.2 171.778 37.2287V32.2887H172.834V35.5453C173.107 35.234 173.449 34.9903 173.833 34.8332C174.305 34.636 174.813 34.5396 175.325 34.5502C176.28 34.5502 177.023 34.7955 177.554 35.2861C177.822 35.5435 178.032 35.8555 178.17 36.2009C178.307 36.5463 178.369 36.9171 178.35 37.2883C178.36 37.8326 178.225 38.3696 177.957 38.8436C177.689 39.2976 177.295 39.6641 176.823 39.8983C176.288 40.162 175.697 40.2928 175.101 40.2797C174.027 40.2797 173.204 40.0116 172.634 39.4812ZM176.709 38.8585C177.093 38.439 177.297 37.8859 177.276 37.3181C177.285 37.0523 177.236 36.7878 177.133 36.5425C177.03 36.2972 176.875 36.077 176.68 35.8969C176.224 35.5103 175.635 35.3158 175.039 35.3546C174.569 35.3427 174.105 35.4548 173.693 35.6794C173.318 35.8895 173.014 36.2057 172.819 36.5881V37.3032C172.803 37.5942 172.848 37.8854 172.951 38.1582C173.054 38.431 173.212 38.6796 173.416 38.8883C173.648 39.091 173.918 39.2458 174.21 39.344C174.503 39.4422 174.811 39.4817 175.119 39.4604C175.412 39.4788 175.705 39.4346 175.979 39.3308C176.254 39.227 176.502 39.066 176.709 38.8585V38.8585ZM179.63 32.2887H180.686V40.1158H179.63V32.2887Z" fill="#383536"></path> <path d="M190.595 32.2887V40.1159H189.583V38.6857C189.311 39.1548 188.913 39.5386 188.435 39.7941C187.918 40.0652 187.341 40.2015 186.758 40.1903C185.722 40.1903 184.909 39.9043 184.32 39.3322C183.732 38.7602 183.433 37.9249 183.425 36.8265V32.2887H184.484V36.7222C184.484 37.5446 184.683 38.1693 185.081 38.5963C185.314 38.8194 185.591 38.9915 185.894 39.1018C186.197 39.2121 186.52 39.2581 186.841 39.2369C187.201 39.2556 187.561 39.1984 187.897 39.069C188.233 38.9396 188.538 38.741 188.793 38.4861C189.296 37.9115 189.553 37.1625 189.509 36.4004V32.2887H190.595ZM185.409 30.6679C185.208 30.4891 185.049 30.2683 184.943 30.0211C184.838 29.7739 184.788 29.5064 184.798 29.2377H185.564C185.562 29.4137 185.598 29.588 185.671 29.7486C185.743 29.9092 185.849 30.0521 185.982 30.1673C186.275 30.4094 186.647 30.5347 187.026 30.5189C187.408 30.5334 187.781 30.4084 188.077 30.1673C188.212 30.0534 188.32 29.9109 188.393 29.7502C188.466 29.5894 188.503 29.4144 188.5 29.2377H189.261C189.271 29.5072 189.22 29.7754 189.112 30.0227C189.005 30.2701 188.844 30.4905 188.641 30.6679C188.167 30.9957 187.604 31.1713 187.028 31.1713C186.452 31.1713 185.889 30.9957 185.415 30.6679H185.409Z" fill="#383536"></path> <path d="M205.673 39.2071V42.0942H204.674V40.1307H197.499V32.2887H198.558V39.2071H203.331V32.2887H204.388V39.2071H205.673Z" fill="#383536"></path> <path d="M212.369 38.9926C212.776 38.8232 213.137 38.5597 213.422 38.2239L214.019 38.9092C213.67 39.3266 213.226 39.6537 212.724 39.8626C212.104 40.1072 211.439 40.217 210.773 40.1847C210.107 40.1523 209.456 39.9785 208.863 39.6749C208.253 39.3469 207.748 38.8545 207.404 38.2537C207.05 37.6281 206.87 36.9193 206.882 36.2008C206.87 35.4849 207.042 34.7779 207.383 34.1479C207.701 33.5574 208.179 33.0681 208.762 32.7357C209.369 32.391 210.059 32.216 210.758 32.2291C211.416 32.2195 212.066 32.384 212.64 32.7059C213.198 33.0191 213.662 33.4759 213.983 34.0288C214.321 34.618 214.502 35.2835 214.511 35.9624L208.075 37.2138C208.255 37.8189 208.636 38.3446 209.155 38.7036C209.708 39.0736 210.361 39.2631 211.026 39.2458C211.486 39.2521 211.943 39.166 212.369 38.9926V38.9926ZM209.287 33.5163C208.857 33.7672 208.506 34.1324 208.272 34.571C208.024 35.0512 207.898 35.5857 207.908 36.1263C207.907 36.2358 207.912 36.3452 207.923 36.4541L213.452 35.3844C213.347 34.7562 213.025 34.1846 212.542 33.7695C212.045 33.3425 211.407 33.1162 210.752 33.1349C210.238 33.1278 209.732 33.2596 209.287 33.5163Z" fill="#383536"></path> <path d="M216.698 32.2887H217.757V35.7539H222.689V32.2887H223.754V40.1158H222.698V36.6626H217.757V40.1158H216.698V32.2887Z" fill="#383536"></path> <path d="M238.848 33.0753C239.408 33.6414 239.689 34.4747 239.689 35.5751V40.1159H238.63V35.6794C238.63 34.867 238.431 34.2472 238.033 33.8202C237.818 33.6009 237.558 33.4303 237.272 33.3198C236.985 33.2093 236.678 33.1615 236.371 33.1796C236.016 33.1612 235.66 33.2189 235.329 33.349C234.997 33.479 234.698 33.6782 234.45 33.9334C233.952 34.5106 233.701 35.2591 233.749 36.0191V40.1278H232.704V35.6794C232.704 34.867 232.506 34.2472 232.108 33.8202C231.891 33.5998 231.629 33.4286 231.341 33.3181C231.052 33.2075 230.743 33.1603 230.434 33.1796C230.081 33.1639 229.729 33.223 229.4 33.3529C229.071 33.4828 228.774 33.6806 228.527 33.9334C228.027 34.5092 227.773 35.2582 227.82 36.0191V40.1278H226.761V32.2887H227.776V33.7159C228.048 33.2449 228.451 32.8629 228.936 32.6165C229.467 32.3501 230.055 32.2171 230.649 32.2291C231.245 32.2129 231.834 32.357 232.355 32.6463C232.841 32.9276 233.221 33.3612 233.435 33.8798C233.724 33.3642 234.156 32.9431 234.68 32.6671C235.252 32.368 235.89 32.2174 236.535 32.2291C236.958 32.2064 237.381 32.2696 237.778 32.4151C238.176 32.5605 238.54 32.7852 238.848 33.0753V33.0753Z" fill="#383536"></path> <path d="M248.105 32.7357C248.695 33.0645 249.178 33.5544 249.499 34.1479C249.845 34.7857 250.021 35.5021 250.009 36.2276C250.022 36.945 249.854 37.6542 249.52 38.2894C249.205 38.8757 248.733 39.3628 248.156 39.6957C247.55 40.0394 246.863 40.2143 246.166 40.2023C245.559 40.2123 244.958 40.0764 244.415 39.806C243.905 39.545 243.476 39.1519 243.171 38.6678V43.0119H242.103V36.2276C242.087 35.5013 242.259 34.7831 242.601 34.142C242.923 33.5475 243.408 33.0574 244 32.7297C244.632 32.3834 245.344 32.2087 246.065 32.2232C246.778 32.2108 247.483 32.3877 248.105 32.7357V32.7357ZM247.542 38.8794C247.985 38.6243 248.346 38.248 248.583 37.7948C248.828 37.305 248.956 36.7648 248.956 36.2172C248.956 35.6695 248.828 35.1294 248.583 34.6395C248.346 34.1844 247.985 33.8053 247.542 33.5461C247.083 33.2893 246.565 33.1544 246.039 33.1544C245.513 33.1544 244.996 33.2893 244.537 33.5461C244.1 33.8017 243.744 34.1756 243.511 34.6246C243.259 35.1146 243.133 35.6592 243.144 36.2097C243.134 36.763 243.26 37.3103 243.511 37.8038C243.741 38.2567 244.097 38.6334 244.537 38.8883C244.99 39.1493 245.506 39.2831 246.029 39.2756C246.56 39.2821 247.082 39.1452 247.542 38.8794V38.8794Z" fill="#383536"></path> <path d="M66.9327 4.99063C68.0843 6.13873 68.6612 7.86385 68.6631 10.166V19.1045H64.1341V10.8632C64.1341 9.62374 63.8775 8.70308 63.3644 8.09228C63.0928 7.78305 62.754 7.53988 62.374 7.38135C61.9939 7.22283 61.5826 7.15313 61.1715 7.17758C60.7005 7.15525 60.2303 7.23594 59.7938 7.41401C59.3573 7.59208 58.965 7.86323 58.6444 8.20848C58.0238 8.89377 57.7145 9.91374 57.7165 11.2684V19.0985H53.1815V10.8632C53.1815 8.40811 52.194 7.17956 50.2189 7.17758C49.7521 7.15894 49.2869 7.24265 48.856 7.42281C48.4251 7.60297 48.0389 7.87522 47.7246 8.2204C47.1041 8.90568 46.7938 9.92566 46.7938 11.2803V19.1104H42.2588V3.49493H46.5879V5.28262C47.1726 4.62064 47.9041 4.10436 48.7241 3.775C49.6037 3.41716 50.5461 3.23885 51.4958 3.25061C52.5273 3.23672 53.5481 3.45998 54.4794 3.90312C55.3573 4.32792 56.1015 4.9855 56.6305 5.80403C57.2761 4.99087 58.1108 4.34752 59.0621 3.92993C60.0715 3.4788 61.1666 3.25112 62.2724 3.26253C64.2276 3.26253 65.781 3.83856 66.9327 4.99063Z" fill="#383536"></path> <path d="M84.3954 4.24876C85.6107 4.8828 86.6112 5.86131 87.2715 7.06139C87.9766 8.37143 88.3311 9.84105 88.3008 11.328C88.3299 12.782 88 14.2208 87.3401 15.5172C86.7297 16.6946 85.7922 17.6712 84.64 18.3298C83.4171 19.013 82.0341 19.3585 80.6331 19.3309C78.6441 19.3309 77.0847 18.7023 75.9549 17.4449V24.7268H71.414V11.3548C71.3824 9.87257 71.7536 8.40945 72.488 7.12098C73.2014 5.90447 74.2493 4.91794 75.5074 4.27855C76.9128 3.57674 78.4685 3.22799 80.0394 3.26254C81.5506 3.2279 83.0469 3.56668 84.3954 4.24876V4.24876ZM82.7097 14.4297C83.4675 13.5785 83.8634 12.4659 83.8136 11.328C83.8136 10.0329 83.4456 8.98316 82.7097 8.1787C82.3358 7.79883 81.8901 7.49685 81.3984 7.29026C80.9068 7.08366 80.379 6.97657 79.8456 6.97519C79.3122 6.9738 78.7838 7.07815 78.2911 7.28218C77.7984 7.48622 77.3512 7.78588 76.9753 8.1638C76.2493 8.95833 75.8863 10.0022 75.8863 11.2953C75.8863 12.5883 76.2443 13.6332 76.9604 14.4297C77.3235 14.8261 77.7692 15.1383 78.2661 15.3442C78.763 15.5501 79.299 15.6447 79.8365 15.6215C80.3731 15.6407 80.9074 15.5442 81.4032 15.3385C81.8991 15.1328 82.3447 14.8229 82.7097 14.4297V14.4297Z" fill="#383536"></path> <path d="M107.255 3.49494V19.0985H102.92V17.3108C101.798 18.6635 100.171 19.3399 98.0392 19.3399C96.6475 19.3577 95.2746 19.017 94.0532 18.3507C92.8693 17.6999 91.897 16.7238 91.2516 15.538C90.5828 14.2261 90.2341 12.7748 90.2341 11.3027C90.2341 9.83054 90.5828 8.37925 91.2516 7.06735C91.897 5.88162 92.8693 4.90551 94.0532 4.25471C95.2772 3.58978 96.6519 3.25017 98.0452 3.2685C100.034 3.2685 101.594 3.89717 102.723 5.15452V3.5009L107.255 3.49494ZM101.676 14.4446C102.432 13.6619 102.81 12.6122 102.81 11.2952C102.81 9.97831 102.432 8.92953 101.676 8.1489C100.915 7.3969 99.8872 6.97512 98.8164 6.97512C97.7456 6.97512 96.718 7.3969 95.9567 8.1489C95.2009 8.93151 94.8229 9.9803 94.8229 11.2952C94.8229 12.6102 95.2009 13.66 95.9567 14.4446C96.718 15.1966 97.7456 15.6184 98.8164 15.6184C99.8872 15.6184 100.915 15.1966 101.676 14.4446Z" fill="#383536"></path> <path d="M133.582 13.1813V19.0985H129.05V3.49493H133.582V9.55522C139.925 9.55522 140.262 3.49493 140.262 3.49493H145.084C145.084 3.49493 143.864 10.5951 138.595 10.9764C143.917 11.182 145.457 19.0985 145.457 19.0985H140.116C140.116 19.0985 139.758 13.1813 133.582 13.1813Z" fill="#383536"></path> <path d="M173.081 4.99063C174.233 6.13873 174.809 7.86385 174.809 10.166V19.1045H170.28V10.8632C170.28 9.62374 170.023 8.70308 169.51 8.09228C169.238 7.78305 168.9 7.53988 168.52 7.38135C168.14 7.22283 167.728 7.15313 167.317 7.17758C166.846 7.15505 166.376 7.23565 165.939 7.41373C165.503 7.59181 165.111 7.86306 164.79 8.20848C164.17 8.89377 163.859 9.91374 163.859 11.2684V19.0985H159.33V10.8632C159.33 8.40811 158.343 7.17956 156.368 7.17758C155.901 7.15701 155.436 7.23864 155.005 7.41673C154.573 7.59482 154.186 7.86507 153.87 8.20848C153.25 8.89377 152.939 9.91374 152.939 11.2684V19.0985H148.407V3.49493H152.746V5.28262C153.33 4.62064 154.062 4.10436 154.882 3.775C155.761 3.41716 156.704 3.23885 157.653 3.25061C158.685 3.23672 159.706 3.45998 160.637 3.90312C161.515 4.32721 162.258 4.98501 162.785 5.80403C163.429 4.98823 164.261 4.34095 165.211 3.91802C166.22 3.46688 167.315 3.2392 168.421 3.25061C170.376 3.25856 171.93 3.83856 173.081 4.99063Z" fill="#383536"></path> <path d="M181.34 18.303C180.071 17.6533 179.01 16.6626 178.276 15.4427C177.551 14.1801 177.17 12.7503 177.17 11.2952C177.17 9.84014 177.551 8.41033 178.276 7.14779C179.011 5.93038 180.073 4.94194 181.34 4.29344C182.715 3.61531 184.228 3.26257 185.761 3.26257C187.295 3.26257 188.808 3.61531 190.183 4.29344C191.444 4.94573 192.499 5.93362 193.232 7.14779C193.957 8.41033 194.338 9.84014 194.338 11.2952C194.338 12.7503 193.957 14.1801 193.232 15.4427C192.5 16.6592 191.445 17.6493 190.183 18.303C188.807 18.9791 187.295 19.3308 185.761 19.3308C184.228 19.3308 182.715 18.9791 181.34 18.303ZM188.629 14.4297C189.374 13.647 189.747 12.5973 189.747 11.2803C189.747 9.96341 189.374 8.91463 188.629 8.134C188.262 7.7476 187.817 7.4432 187.324 7.24086C186.831 7.03852 186.3 6.94283 185.767 6.96008C185.232 6.94372 184.7 7.03976 184.204 7.24199C183.709 7.44421 183.262 7.74811 182.891 8.134C182.137 8.91661 181.76 9.96539 181.76 11.2803C181.76 12.5953 182.133 13.65 182.879 14.4446C183.25 14.83 183.697 15.1336 184.193 15.3358C184.688 15.538 185.22 15.6343 185.755 15.6185C186.29 15.6367 186.823 15.5415 187.318 15.3391C187.813 15.1368 188.26 14.8319 188.629 14.4446V14.4297Z" fill="#383536"></path> <path d="M209.543 4.24874C210.758 4.88297 211.757 5.86151 212.416 7.06138C213.117 8.37253 213.468 9.84208 213.434 11.328C213.464 12.7817 213.135 14.2205 212.476 15.5172C211.864 16.6948 210.926 17.6713 209.773 18.3298C208.55 19.013 207.167 19.3585 205.766 19.3309C203.777 19.3309 202.219 18.7022 201.091 17.4449V24.7268H196.559V11.3548C196.527 9.87255 196.898 8.40943 197.633 7.12096C198.346 5.90445 199.394 4.91792 200.652 4.27853C202.058 3.57707 203.613 3.22833 205.184 3.26253C206.696 3.22826 208.193 3.567 209.543 4.24874V4.24874ZM207.857 14.4297C208.614 13.5776 209.01 12.4657 208.961 11.328C209.012 10.1756 208.617 9.04788 207.857 8.17868C207.483 7.79872 207.037 7.49668 206.545 7.29005C206.054 7.08342 205.525 6.9763 204.992 6.97492C204.458 6.97353 203.93 7.0779 203.437 7.28197C202.944 7.48605 202.496 7.78577 202.12 8.16379C201.394 8.95832 201.031 10.0021 201.031 11.2952C201.031 12.5883 201.389 13.6331 202.105 14.4297C202.468 14.8259 202.914 15.138 203.411 15.3439C203.908 15.5498 204.444 15.6445 204.981 15.6214C205.518 15.6407 206.053 15.5442 206.549 15.3386C207.046 15.1329 207.492 14.8229 207.857 14.4297V14.4297Z" fill="#383536"></path> <path d="M231.785 3.49493V19.0985H227.459V17.2721C226.88 17.9473 226.148 18.4744 225.323 18.8095C224.471 19.1582 223.559 19.3354 222.638 19.3309C220.585 19.3309 218.954 18.741 217.745 17.5611C216.536 16.3812 215.93 14.6313 215.928 12.3112V3.49493H220.472V11.6468C220.472 14.1595 221.527 15.4159 223.637 15.4159C224.128 15.4383 224.618 15.3554 225.074 15.173C225.53 14.9906 225.941 14.7127 226.281 14.3582C226.937 13.651 227.266 12.6012 227.268 11.2088V3.49493H231.785Z" fill="#383536"></path> <path d="M250.009 3.49493V19.0985H245.96V14.6293C242.082 14.4475 239.659 16.119 239.659 19.0985H234.838C234.838 16.6255 236.523 14.4982 238.418 13.9947C237.434 13.6253 236.574 12.9872 235.936 12.1533C235.347 11.2978 235.046 10.2772 235.076 9.23939C235.076 7.40204 235.74 5.98579 237.066 4.99064C238.393 3.99549 240.218 3.49891 242.541 3.50089L250.009 3.49493ZM240.441 7.70197C239.945 8.04759 239.698 8.61072 239.698 9.3824C239.698 10.1541 239.937 10.7232 240.411 11.0777C240.885 11.4323 241.604 11.614 242.574 11.614H245.972V7.17758H242.622C241.653 7.17758 240.922 7.35238 240.429 7.70197H240.441Z" fill="#383536"></path> <path d="M125.07 6.90943C124.439 5.72306 123.437 4.77439 122.218 4.20703C120.959 3.56825 119.563 3.24414 118.151 3.26253C116.66 3.2388 115.187 3.59351 113.87 4.29343C112.629 4.95627 111.596 5.94941 110.886 7.16268C110.149 8.4145 109.768 9.84316 109.782 11.2952C109.757 12.7533 110.14 14.1895 110.886 15.4427C111.637 16.6756 112.725 17.6682 114.022 18.303C115.477 19.0107 117.079 19.363 118.697 19.3309C121.526 19.3309 123.676 18.4897 125.148 16.8073L122.737 14.1973C122.234 14.6929 121.637 15.082 120.98 15.3414C120.287 15.5955 119.554 15.7187 118.817 15.7049C117.787 15.7049 116.901 15.547 116.215 15.109C115.496 14.6715 114.947 14.002 114.66 13.211H126.046C126.281 10.0945 125.697 8.14294 125.07 6.90943ZM118.33 6.68298C121.096 6.68298 122.024 8.51835 122.209 10.16H114.353C114.373 9.66642 114.492 9.1819 114.706 8.73609C114.919 8.29027 115.221 7.89252 115.593 7.56711C115.965 7.24171 116.4 6.99548 116.87 6.84347C117.341 6.69146 117.838 6.63685 118.33 6.68298V6.68298Z" fill="#383536"></path> <path d="M31.1452 23.5886H22.3944V8.73884H6.47426V0H31.1452V23.5886Z" fill="#FBB900"></path> <path d="M23.9399 1.66553C16.9965 5.7254 11.1725 11.4451 6.99161 18.3102C2.8107 25.1753 0.404033 32.9705 -0.0119629 40.9948H12.5189C12.5138 35.9072 13.5202 30.8692 15.4797 26.173C17.4392 21.4768 20.3128 17.2158 23.9339 13.6371L23.9399 1.66553Z" fill="#FBB900"></path> </g> </g> <defs> <clipPath id="clip0_202_3"> <rect width="250" height="43" fill="white"></rect> </clipPath> <clipPath id="clip1_202_3"> <rect width="250" height="43" fill="white"></rect> </clipPath> </defs> </svg> 